<svg width="360" height="800" viewBox="0 0 360 800" fill="none" xmlns="http://www.w3.org/2000/svg">
<g clip-path="url(#clip0_84_92)">
<rect width="360" height="800" fill="white"/>
<g filter="url(#filter0_f_84_92)">
<path d="M228 360.5C228 440.857 162.857 506 82.5 506C2.14257 506 -63 440.857 -63 360.5C-63 280.143 2.14257 215 82.5 215C162.857 215 228 280.143 228 360.5Z" fill="#809BFE"/>
<path d="M456 141.5C456 221.857 390.857 287 310.5 287C230.143 287 165 221.857 165 141.5C165 61.1426 230.143 -4 310.5 -4C390.857 -4 456 61.1426 456 141.5Z" fill="#FFCD92"/>
<path d="M257 599.5C257 679.857 191.857 745 111.5 745C31.1426 745 -34 679.857 -34 599.5C-34 519.143 31.1426 454 111.5 454C191.857 454 257 519.143 257 599.5Z" fill="#FFCD92"/>
<path d="M203 24.5C203 104.857 137.857 170 57.5 170C-22.8574 170 -88 104.857 -88 24.5C-88 -55.8574 -22.8574 -121 57.5 -121C137.857 -121 203 -55.8574 203 24.5Z" fill="#79418A"/>
<path d="M410 414.5C410 494.857 344.857 560 264.5 560C184.143 560 119 494.857 119 414.5C119 334.143 184.143 269 264.5 269C344.857 269 410 334.143 410 414.5Z" fill="#79418A"/>
<path d="M437 -2.5C437 77.8574 371.857 143 291.5 143C211.143 143 146 77.8574 146 -2.5C146 -82.8574 211.143 -148 291.5 -148C371.857 -148 437 -82.8574 437 -2.5Z" fill="#809BFE"/>
<path d="M249 214.5C249 294.857 183.857 360 103.5 360C23.1426 360 -42 294.857 -42 214.5C-42 134.143 23.1426 69 103.5 69C183.857 69 249 134.143 249 214.5Z" fill="#EE748F"/>
<path d="M469 635.5C469 715.857 403.857 781 323.5 781C243.143 781 178 715.857 178 635.5C178 555.143 243.143 490 323.5 490C403.857 490 469 555.143 469 635.5Z" fill="#EE748F"/>
</g>
<g filter="url(#filter1_i_84_92)">
<path d="M0 579.221C0 532.493 37.8799 494.613 84.6071 494.613H270.387C319.879 494.613 360 454.492 360 405V800H0V579.221Z" fill="white" fill-opacity="0.5"/>
</g>
<path d="M128.448 575.216C127.856 575.216 127.376 575.08 127.008 574.808C126.64 574.52 126.352 574.08 126.144 573.488L121.464 560.456C121.192 559.736 121.232 559.128 121.584 558.632C121.936 558.12 122.552 557.864 123.432 557.864C124.04 557.864 124.504 558.008 124.824 558.296C125.16 558.568 125.424 559 125.616 559.592L128.64 568.712L131.904 559.592C132.128 559 132.4 558.568 132.72 558.296C133.056 558.008 133.496 557.864 134.04 557.864C134.568 557.864 134.992 558.008 135.312 558.296C135.632 558.568 135.896 559.008 136.104 559.616L139.224 568.904L142.416 559.592C142.608 559 142.864 558.568 143.184 558.296C143.52 558.008 143.984 557.864 144.576 557.864C145.312 557.864 145.848 558.12 146.184 558.632C146.52 559.128 146.56 559.736 146.304 560.456L141.576 573.512C141.368 574.088 141.08 574.52 140.712 574.808C140.36 575.08 139.888 575.216 139.296 575.216C138.704 575.216 138.224 575.08 137.856 574.808C137.488 574.52 137.2 574.08 136.992 573.488L133.896 564.824L130.752 573.512C130.528 574.088 130.24 574.52 129.888 574.808C129.536 575.08 129.056 575.216 128.448 575.216ZM153.469 575.264C152.029 575.264 150.781 575.016 149.725 574.52C148.685 574.008 147.885 573.288 147.325 572.36C146.765 571.432 146.485 570.336 146.485 569.072C146.485 567.872 146.749 566.808 147.277 565.88C147.821 564.952 148.557 564.232 149.485 563.72C150.429 563.192 151.501 562.928 152.701 562.928C153.885 562.928 154.909 563.176 155.773 563.672C156.653 564.168 157.325 564.88 157.789 565.808C158.269 566.72 158.509 567.792 158.509 569.024C158.509 569.648 158.141 569.96 157.405 569.96H150.565C150.709 570.728 151.029 571.28 151.525 571.616C152.021 571.952 152.709 572.12 153.589 572.12C153.925 572.12 154.325 572.08 154.789 572C155.253 571.92 155.693 571.792 156.109 571.616C156.621 571.424 157.053 571.424 157.405 571.616C157.757 571.792 157.989 572.072 158.101 572.456C158.229 572.824 158.213 573.208 158.053 573.608C157.909 573.992 157.613 574.288 157.165 574.496C156.605 574.768 156.005 574.96 155.365 575.072C154.741 575.2 154.109 575.264 153.469 575.264ZM152.893 565.688C152.253 565.688 151.725 565.88 151.309 566.264C150.909 566.648 150.653 567.208 150.541 567.944H155.005C154.957 567.192 154.749 566.632 154.381 566.264C154.029 565.88 153.533 565.688 152.893 565.688ZM164.838 575.264C163.286 575.264 162.15 574.856 161.43 574.04C160.71 573.208 160.35 571.96 160.35 570.296V560.024C160.35 558.584 161.054 557.864 162.462 557.864C163.15 557.864 163.678 558.048 164.046 558.416C164.43 558.784 164.622 559.32 164.622 560.024V570.152C164.622 570.744 164.734 571.176 164.958 571.448C165.198 571.72 165.502 571.856 165.87 571.856C165.982 571.856 166.094 571.848 166.206 571.832C166.334 571.8 166.47 571.776 166.614 571.76C166.902 571.76 167.11 571.864 167.238 572.072C167.366 572.28 167.43 572.704 167.43 573.344C167.43 573.904 167.318 574.328 167.094 574.616C166.87 574.888 166.526 575.064 166.062 575.144C165.934 575.176 165.75 575.2 165.51 575.216C165.27 575.248 165.046 575.264 164.838 575.264ZM174.6 575.264C173.272 575.264 172.112 575.016 171.12 574.52C170.144 574.024 169.384 573.312 168.84 572.384C168.296 571.456 168.024 570.352 168.024 569.072C168.024 567.792 168.296 566.696 168.84 565.784C169.384 564.856 170.144 564.152 171.12 563.672C172.112 563.176 173.272 562.928 174.6 562.928C175.064 562.928 175.552 562.976 176.064 563.072C176.576 563.152 177.104 563.312 177.648 563.552C178.016 563.696 178.28 563.92 178.44 564.224C178.6 564.512 178.664 564.824 178.632 565.16C178.616 565.496 178.52 565.8 178.344 566.072C178.184 566.344 177.952 566.528 177.648 566.624C177.36 566.72 177.032 566.68 176.664 566.504C176.136 566.264 175.6 566.144 175.056 566.144C174.208 566.144 173.552 566.4 173.088 566.912C172.624 567.424 172.392 568.144 172.392 569.072C172.392 570.016 172.624 570.752 173.088 571.28C173.552 571.792 174.208 572.048 175.056 572.048C175.312 572.048 175.576 572.024 175.848 571.976C176.12 571.912 176.392 571.816 176.664 571.688C177.048 571.512 177.376 571.48 177.648 571.592C177.936 571.688 178.16 571.872 178.32 572.144C178.496 572.4 178.592 572.696 178.608 573.032C178.64 573.368 178.576 573.688 178.416 573.992C178.256 574.28 177.984 574.496 177.6 574.64C177.056 574.88 176.536 575.04 176.04 575.12C175.544 575.216 175.064 575.264 174.6 575.264ZM185.943 575.264C184.631 575.264 183.487 575.016 182.511 574.52C181.535 574.024 180.775 573.312 180.231 572.384C179.687 571.456 179.415 570.36 179.415 569.096C179.415 567.816 179.687 566.72 180.231 565.808C180.775 564.88 181.535 564.168 182.511 563.672C183.487 563.176 184.631 562.928 185.943 562.928C187.255 562.928 188.399 563.176 189.375 563.672C190.351 564.168 191.103 564.88 191.631 565.808C192.175 566.72 192.447 567.816 192.447 569.096C192.447 570.36 192.175 571.456 191.631 572.384C191.103 573.312 190.351 574.024 189.375 574.52C188.399 575.016 187.255 575.264 185.943 575.264ZM185.943 572.12C186.583 572.12 187.111 571.88 187.527 571.4C187.943 570.92 188.151 570.152 188.151 569.096C188.151 568.024 187.943 567.256 187.527 566.792C187.111 566.312 186.583 566.072 185.943 566.072C185.287 566.072 184.751 566.312 184.335 566.792C183.919 567.256 183.711 568.024 183.711 569.096C183.711 570.152 183.919 570.92 184.335 571.4C184.751 571.88 185.287 572.12 185.943 572.12ZM196.564 575.216C195.876 575.216 195.348 575.032 194.98 574.664C194.628 574.296 194.452 573.76 194.452 573.056V565.112C194.452 563.688 195.148 562.976 196.54 562.976C197.804 562.976 198.492 563.584 198.604 564.8C198.956 564.224 199.436 563.768 200.044 563.432C200.668 563.096 201.388 562.928 202.204 562.928C203.004 562.928 203.692 563.104 204.268 563.456C204.86 563.808 205.308 564.352 205.612 565.088C206.012 564.4 206.556 563.872 207.244 563.504C207.932 563.12 208.692 562.928 209.524 562.928C210.9 562.928 211.916 563.344 212.572 564.176C213.244 564.992 213.58 566.272 213.58 568.016V573.056C213.58 573.76 213.388 574.296 213.004 574.664C212.636 575.032 212.108 575.216 211.42 575.216C210.748 575.216 210.228 575.032 209.86 574.664C209.492 574.296 209.308 573.76 209.308 573.056V568.136C209.308 567.448 209.204 566.952 208.996 566.648C208.788 566.344 208.444 566.192 207.964 566.192C207.372 566.192 206.916 566.4 206.596 566.816C206.292 567.232 206.14 567.824 206.14 568.592V573.056C206.14 573.76 205.956 574.296 205.588 574.664C205.22 575.032 204.692 575.216 204.004 575.216C203.316 575.216 202.788 575.032 202.42 574.664C202.052 574.296 201.868 573.76 201.868 573.056V568.136C201.868 567.448 201.764 566.952 201.556 566.648C201.348 566.344 201.004 566.192 200.524 566.192C199.948 566.192 199.5 566.4 199.18 566.816C198.876 567.232 198.724 567.824 198.724 568.592V573.056C198.724 574.496 198.004 575.216 196.564 575.216ZM222.493 575.264C221.053 575.264 219.805 575.016 218.749 574.52C217.709 574.008 216.909 573.288 216.349 572.36C215.789 571.432 215.509 570.336 215.509 569.072C215.509 567.872 215.773 566.808 216.301 565.88C216.845 564.952 217.581 564.232 218.509 563.72C219.453 563.192 220.525 562.928 221.725 562.928C222.909 562.928 223.933 563.176 224.797 563.672C225.677 564.168 226.349 564.88 226.812 565.808C227.293 566.72 227.533 567.792 227.533 569.024C227.533 569.648 227.165 569.96 226.429 569.96H219.589C219.733 570.728 220.053 571.28 220.549 571.616C221.045 571.952 221.733 572.12 222.613 572.12C222.949 572.12 223.349 572.08 223.813 572C224.277 571.92 224.717 571.792 225.133 571.616C225.645 571.424 226.077 571.424 226.429 571.616C226.781 571.792 227.013 572.072 227.125 572.456C227.253 572.824 227.237 573.208 227.077 573.608C226.933 573.992 226.637 574.288 226.189 574.496C225.629 574.768 225.029 574.96 224.389 575.072C223.765 575.2 223.133 575.264 222.493 575.264ZM221.917 565.688C221.277 565.688 220.749 565.88 220.333 566.264C219.933 566.648 219.677 567.208 219.565 567.944H224.029C223.981 567.192 223.773 566.632 223.405 566.264C223.053 565.88 222.557 565.688 221.917 565.688ZM231.389 569.456C230.541 569.456 230.053 568.944 229.925 567.92L229.085 560.672C228.973 559.84 229.125 559.168 229.541 558.656C229.957 558.128 230.573 557.864 231.389 557.864C232.221 557.864 232.837 558.128 233.237 558.656C233.637 559.168 233.781 559.84 233.669 560.672L232.853 567.92C232.725 568.944 232.237 569.456 231.389 569.456ZM231.389 575.144C230.669 575.144 230.093 574.928 229.661 574.496C229.245 574.048 229.037 573.48 229.037 572.792C229.037 572.12 229.245 571.568 229.661 571.136C230.093 570.704 230.669 570.488 231.389 570.488C232.125 570.488 232.701 570.704 233.117 571.136C233.533 571.568 233.741 572.12 233.741 572.792C233.741 573.48 233.533 574.048 233.117 574.496C232.701 574.928 232.125 575.144 231.389 575.144Z" fill="black"/>
<path d="M46.7319 603C46.3239 603 46.1199 602.79 46.1199 602.37V590.94C46.1199 590.52 46.3239 590.31 46.7319 590.31H53.5359C53.8719 590.31 54.0399 590.466 54.0399 590.778C54.0399 591.102 53.8719 591.264 53.5359 591.264H47.1999V596.088H53.1759C53.5119 596.088 53.6799 596.244 53.6799 596.556C53.6799 596.88 53.5119 597.042 53.1759 597.042H47.1999V602.046H53.5359C53.8719 602.046 54.0399 602.202 54.0399 602.514C54.0399 602.838 53.8719 603 53.5359 603H46.7319ZM56.077 603.126C55.897 603.126 55.759 603.048 55.663 602.892C55.567 602.724 55.609 602.526 55.789 602.298L58.831 598.482L56.005 594.972C55.813 594.744 55.765 594.552 55.861 594.396C55.969 594.228 56.107 594.144 56.275 594.144C56.527 594.144 56.737 594.258 56.905 594.486L59.479 597.726L62.071 594.486C62.239 594.258 62.443 594.144 62.683 594.144C62.863 594.144 63.001 594.228 63.097 594.396C63.193 594.552 63.145 594.744 62.953 594.972L60.127 598.5L63.169 602.298C63.349 602.526 63.391 602.724 63.295 602.892C63.199 603.048 63.061 603.126 62.881 603.126C62.629 603.126 62.413 603.012 62.233 602.784L59.479 599.31L56.707 602.784C56.539 603.012 56.329 603.126 56.077 603.126ZM66.0966 606.348C65.7246 606.348 65.5386 606.162 65.5386 605.79V594.72C65.5386 594.336 65.7246 594.144 66.0966 594.144C66.4566 594.144 66.6366 594.336 66.6366 594.72V595.908C66.9006 595.356 67.2966 594.918 67.8246 594.594C68.3646 594.27 68.9886 594.108 69.6966 594.108C70.4766 594.108 71.1546 594.294 71.7306 594.666C72.3186 595.038 72.7686 595.56 73.0806 596.232C73.4046 596.904 73.5666 597.702 73.5666 598.626C73.5666 599.55 73.4046 600.354 73.0806 601.038C72.7686 601.71 72.3186 602.232 71.7306 602.604C71.1546 602.964 70.4766 603.144 69.6966 603.144C68.9886 603.144 68.3646 602.988 67.8246 602.676C67.2966 602.364 66.9006 601.932 66.6366 601.38V605.79C66.6366 606.162 66.4566 606.348 66.0966 606.348ZM69.5346 602.226C70.4226 602.226 71.1306 601.914 71.6586 601.29C72.1866 600.654 72.4506 599.766 72.4506 598.626C72.4506 597.486 72.1866 596.604 71.6586 595.98C71.1306 595.356 70.4226 595.044 69.5346 595.044C68.6466 595.044 67.9386 595.356 67.4106 595.98C66.8826 596.604 66.6186 597.486 66.6186 598.626C66.6186 599.766 66.8826 600.654 67.4106 601.29C67.9386 601.914 68.6466 602.226 69.5346 602.226ZM78.4121 603.144C77.6081 603.144 76.9841 602.898 76.5401 602.406C76.1081 601.902 75.8921 601.182 75.8921 600.246V590.76C75.8921 590.388 76.0781 590.202 76.4501 590.202C76.8101 590.202 76.9901 590.388 76.9901 590.76V600.12C76.9901 601.5 77.5301 602.19 78.6101 602.19C78.7181 602.19 78.8141 602.184 78.8981 602.172C78.9941 602.16 79.0841 602.154 79.1681 602.154C79.2761 602.142 79.3541 602.166 79.4021 602.226C79.4621 602.274 79.4921 602.382 79.4921 602.55C79.4921 602.862 79.3121 603.048 78.9521 603.108C78.8681 603.132 78.7781 603.144 78.6821 603.144C78.5861 603.144 78.4961 603.144 78.4121 603.144ZM84.4111 603.144C83.5951 603.144 82.8871 602.964 82.2871 602.604C81.6871 602.232 81.2191 601.71 80.8831 601.038C80.5591 600.354 80.3971 599.55 80.3971 598.626C80.3971 597.714 80.5591 596.922 80.8831 596.25C81.2191 595.566 81.6871 595.038 82.2871 594.666C82.8871 594.294 83.5951 594.108 84.4111 594.108C85.2391 594.108 85.9531 594.294 86.5531 594.666C87.1531 595.038 87.6151 595.566 87.9391 596.25C88.2751 596.922 88.4431 597.714 88.4431 598.626C88.4431 599.55 88.2751 600.354 87.9391 601.038C87.6151 601.71 87.1531 602.232 86.5531 602.604C85.9531 602.964 85.2391 603.144 84.4111 603.144ZM84.4111 602.226C85.2991 602.226 86.0071 601.914 86.5351 601.29C87.0631 600.654 87.3271 599.766 87.3271 598.626C87.3271 597.486 87.0631 596.604 86.5351 595.98C86.0071 595.356 85.2991 595.044 84.4111 595.044C83.5231 595.044 82.8151 595.356 82.2871 595.98C81.7711 596.604 81.5131 597.486 81.5131 598.626C81.5131 599.766 81.7711 600.654 82.2871 601.29C82.8151 601.914 83.5231 602.226 84.4111 602.226ZM91.3388 603.108C90.9668 603.108 90.7808 602.922 90.7808 602.55V594.72C90.7808 594.336 90.9668 594.144 91.3388 594.144C91.6868 594.144 91.8608 594.336 91.8608 594.72V595.854C92.1248 595.29 92.5148 594.858 93.0308 594.558C93.5588 594.258 94.1648 594.102 94.8488 594.09C94.9928 594.078 95.1128 594.108 95.2088 594.18C95.3048 594.252 95.3528 594.366 95.3528 594.522C95.3648 594.858 95.1908 595.044 94.8308 595.08L94.5788 595.098C93.7268 595.17 93.0668 595.452 92.5988 595.944C92.1308 596.424 91.8968 597.072 91.8968 597.888V602.55C91.8968 602.922 91.7108 603.108 91.3388 603.108ZM100.626 603.144C99.2817 603.144 98.2197 602.748 97.4397 601.956C96.6717 601.152 96.2877 600.054 96.2877 598.662C96.2877 597.762 96.4617 596.97 96.8097 596.286C97.1577 595.602 97.6377 595.068 98.2497 594.684C98.8737 594.3 99.5877 594.108 100.392 594.108C101.556 594.108 102.462 594.486 103.11 595.242C103.758 595.998 104.082 597.036 104.082 598.356C104.082 598.692 103.914 598.86 103.578 598.86H97.3677C97.4037 599.94 97.6977 600.774 98.2497 601.362C98.8137 601.938 99.5937 602.226 100.59 602.226C101.034 602.226 101.46 602.172 101.868 602.064C102.288 601.944 102.696 601.734 103.092 601.434C103.308 601.29 103.494 601.26 103.65 601.344C103.806 601.416 103.89 601.542 103.902 601.722C103.926 601.89 103.836 602.046 103.632 602.19C103.248 602.502 102.78 602.742 102.228 602.91C101.688 603.066 101.154 603.144 100.626 603.144ZM100.41 594.99C99.4977 594.99 98.7837 595.278 98.2677 595.854C97.7637 596.418 97.4697 597.15 97.3857 598.05H103.092C103.068 597.09 102.828 596.34 102.372 595.8C101.916 595.26 101.262 594.99 100.41 594.99ZM113.555 603.144C112.967 603.144 112.439 603.03 111.971 602.802C111.515 602.574 111.149 602.262 110.873 601.866C110.609 601.47 110.477 601.026 110.477 600.534C110.477 599.886 110.639 599.382 110.963 599.022C111.287 598.65 111.833 598.386 112.601 598.23C113.369 598.074 114.425 597.996 115.769 597.996H116.327V597.348C116.327 596.544 116.165 595.962 115.841 595.602C115.517 595.23 115.001 595.044 114.293 595.044C113.837 595.044 113.393 595.104 112.961 595.224C112.529 595.344 112.079 595.536 111.611 595.8C111.395 595.92 111.221 595.926 111.089 595.818C110.969 595.698 110.909 595.548 110.909 595.368C110.921 595.176 111.023 595.032 111.215 594.936C111.707 594.66 112.217 594.456 112.745 594.324C113.273 594.18 113.783 594.108 114.275 594.108C115.331 594.108 116.111 594.378 116.615 594.918C117.131 595.458 117.389 596.286 117.389 597.402V602.55C117.389 602.922 117.221 603.108 116.885 603.108C116.525 603.108 116.345 602.922 116.345 602.55V601.434C116.105 601.974 115.739 602.394 115.247 602.694C114.767 602.994 114.203 603.144 113.555 603.144ZM113.699 602.262C114.215 602.262 114.665 602.142 115.049 601.902C115.445 601.65 115.757 601.308 115.985 600.876C116.213 600.444 116.327 599.952 116.327 599.4V598.806H115.787C114.707 598.806 113.861 598.854 113.249 598.95C112.649 599.046 112.229 599.214 111.989 599.454C111.749 599.694 111.629 600.024 111.629 600.444C111.629 600.984 111.815 601.422 112.187 601.758C112.559 602.094 113.063 602.262 113.699 602.262ZM122.779 603.144C121.975 603.144 121.351 602.898 120.907 602.406C120.475 601.902 120.259 601.182 120.259 600.246V590.76C120.259 590.388 120.445 590.202 120.817 590.202C121.177 590.202 121.357 590.388 121.357 590.76V600.12C121.357 601.5 121.897 602.19 122.977 602.19C123.085 602.19 123.181 602.184 123.265 602.172C123.361 602.16 123.451 602.154 123.535 602.154C123.643 602.142 123.721 602.166 123.769 602.226C123.829 602.274 123.859 602.382 123.859 602.55C123.859 602.862 123.679 603.048 123.319 603.108C123.235 603.132 123.145 603.144 123.049 603.144C122.953 603.144 122.863 603.144 122.779 603.144ZM127.912 603.144C127.108 603.144 126.484 602.898 126.04 602.406C125.608 601.902 125.392 601.182 125.392 600.246V590.76C125.392 590.388 125.578 590.202 125.95 590.202C126.31 590.202 126.49 590.388 126.49 590.76V600.12C126.49 601.5 127.03 602.19 128.11 602.19C128.218 602.19 128.314 602.184 128.398 602.172C128.494 602.16 128.584 602.154 128.668 602.154C128.776 602.142 128.854 602.166 128.902 602.226C128.962 602.274 128.992 602.382 128.992 602.55C128.992 602.862 128.812 603.048 128.452 603.108C128.368 603.132 128.278 603.144 128.182 603.144C128.086 603.144 127.996 603.144 127.912 603.144ZM138.354 603.144C137.382 603.144 136.65 602.88 136.158 602.352C135.678 601.824 135.438 601.068 135.438 600.084V595.152H134.106C133.758 595.152 133.584 595.002 133.584 594.702C133.584 594.414 133.758 594.27 134.106 594.27H135.438V592.02C135.438 591.648 135.624 591.462 135.996 591.462C136.356 591.462 136.536 591.648 136.536 592.02V594.27H138.966C139.302 594.27 139.47 594.414 139.47 594.702C139.47 595.002 139.302 595.152 138.966 595.152H136.536V599.94C136.536 600.672 136.686 601.23 136.986 601.614C137.286 601.998 137.784 602.19 138.48 602.19C138.72 602.19 138.918 602.166 139.074 602.118C139.23 602.058 139.368 602.028 139.488 602.028C139.704 602.028 139.812 602.178 139.812 602.478C139.812 602.574 139.788 602.67 139.74 602.766C139.704 602.85 139.632 602.91 139.524 602.946C139.392 602.994 139.212 603.036 138.984 603.072C138.756 603.12 138.546 603.144 138.354 603.144ZM141.7 603.108C141.328 603.108 141.142 602.922 141.142 602.55V590.76C141.142 590.388 141.328 590.202 141.7 590.202C142.06 590.202 142.24 590.388 142.24 590.76V595.782C142.54 595.23 142.954 594.816 143.482 594.54C144.022 594.252 144.616 594.108 145.264 594.108C147.34 594.108 148.378 595.236 148.378 597.492V602.55C148.378 602.922 148.198 603.108 147.838 603.108C147.466 603.108 147.28 602.922 147.28 602.55V597.582C147.28 596.718 147.106 596.082 146.758 595.674C146.41 595.266 145.858 595.062 145.102 595.062C144.238 595.062 143.542 595.332 143.014 595.872C142.498 596.4 142.24 597.114 142.24 598.014V602.55C142.24 602.922 142.06 603.108 141.7 603.108ZM155.012 603.144C153.668 603.144 152.606 602.748 151.826 601.956C151.058 601.152 150.674 600.054 150.674 598.662C150.674 597.762 150.848 596.97 151.196 596.286C151.544 595.602 152.024 595.068 152.636 594.684C153.26 594.3 153.974 594.108 154.778 594.108C155.942 594.108 156.848 594.486 157.496 595.242C158.144 595.998 158.468 597.036 158.468 598.356C158.468 598.692 158.3 598.86 157.964 598.86H151.754C151.79 599.94 152.084 600.774 152.636 601.362C153.2 601.938 153.98 602.226 154.976 602.226C155.42 602.226 155.846 602.172 156.254 602.064C156.674 601.944 157.082 601.734 157.478 601.434C157.694 601.29 157.88 601.26 158.036 601.344C158.192 601.416 158.276 601.542 158.288 601.722C158.312 601.89 158.222 602.046 158.018 602.19C157.634 602.502 157.166 602.742 156.614 602.91C156.074 603.066 155.54 603.144 155.012 603.144ZM154.796 594.99C153.884 594.99 153.17 595.278 152.654 595.854C152.15 596.418 151.856 597.15 151.772 598.05H157.478C157.454 597.09 157.214 596.34 156.758 595.8C156.302 595.26 155.648 594.99 154.796 594.99ZM165.836 603.108C165.464 603.108 165.278 602.922 165.278 602.55V594.72C165.278 594.336 165.464 594.144 165.836 594.144C166.184 594.144 166.358 594.336 166.358 594.72V595.8C166.898 594.672 167.816 594.108 169.112 594.108C170.504 594.108 171.386 594.714 171.758 595.926C172.01 595.362 172.394 594.918 172.91 594.594C173.426 594.27 174.026 594.108 174.71 594.108C176.642 594.108 177.608 595.236 177.608 597.492V602.55C177.608 602.922 177.422 603.108 177.05 603.108C176.69 603.108 176.51 602.922 176.51 602.55V597.582C176.51 596.718 176.354 596.082 176.042 595.674C175.742 595.266 175.232 595.062 174.512 595.062C173.744 595.062 173.132 595.332 172.676 595.872C172.22 596.4 171.992 597.12 171.992 598.032V602.55C171.992 602.922 171.812 603.108 171.452 603.108C171.08 603.108 170.894 602.922 170.894 602.55V597.582C170.894 596.718 170.738 596.082 170.426 595.674C170.126 595.266 169.622 595.062 168.914 595.062C168.134 595.062 167.516 595.332 167.06 595.872C166.604 596.4 166.376 597.12 166.376 598.032V602.55C166.376 602.922 166.196 603.108 165.836 603.108ZM183.956 603.144C183.14 603.144 182.432 602.964 181.832 602.604C181.232 602.232 180.764 601.71 180.428 601.038C180.104 600.354 179.942 599.55 179.942 598.626C179.942 597.714 180.104 596.922 180.428 596.25C180.764 595.566 181.232 595.038 181.832 594.666C182.432 594.294 183.14 594.108 183.956 594.108C184.784 594.108 185.498 594.294 186.098 594.666C186.698 595.038 187.16 595.566 187.484 596.25C187.82 596.922 187.988 597.714 187.988 598.626C187.988 599.55 187.82 600.354 187.484 601.038C187.16 601.71 186.698 602.232 186.098 602.604C185.498 602.964 184.784 603.144 183.956 603.144ZM183.956 602.226C184.844 602.226 185.552 601.914 186.08 601.29C186.608 600.654 186.872 599.766 186.872 598.626C186.872 597.486 186.608 596.604 186.08 595.98C185.552 595.356 184.844 595.044 183.956 595.044C183.068 595.044 182.36 595.356 181.832 595.98C181.316 596.604 181.058 597.486 181.058 598.626C181.058 599.766 181.316 600.654 181.832 601.29C182.36 601.914 183.068 602.226 183.956 602.226ZM193.17 603.144C192.63 603.144 192.09 603.072 191.55 602.928C191.022 602.784 190.518 602.538 190.038 602.19C189.882 602.094 189.81 601.962 189.822 601.794C189.834 601.614 189.9 601.476 190.02 601.38C190.152 601.284 190.314 601.296 190.506 601.416C190.974 601.728 191.43 601.944 191.874 602.064C192.318 602.184 192.762 602.244 193.206 602.244C193.95 602.244 194.508 602.112 194.88 601.848C195.264 601.572 195.456 601.194 195.456 600.714C195.456 600.342 195.33 600.048 195.078 599.832C194.826 599.616 194.43 599.442 193.89 599.31L192.324 598.95C190.848 598.614 190.11 597.852 190.11 596.664C190.11 595.896 190.41 595.278 191.01 594.81C191.61 594.342 192.402 594.108 193.386 594.108C193.902 594.108 194.4 594.186 194.88 594.342C195.372 594.498 195.798 594.738 196.158 595.062C196.314 595.182 196.38 595.326 196.356 595.494C196.332 595.662 196.248 595.788 196.104 595.872C195.972 595.956 195.816 595.932 195.636 595.8C195.288 595.536 194.922 595.344 194.538 595.224C194.154 595.092 193.764 595.026 193.368 595.026C192.672 595.026 192.132 595.17 191.748 595.458C191.376 595.746 191.19 596.136 191.19 596.628C191.19 597 191.304 597.3 191.532 597.528C191.76 597.756 192.132 597.93 192.648 598.05L194.214 598.41C194.994 598.59 195.576 598.86 195.96 599.22C196.344 599.568 196.536 600.042 196.536 600.642C196.536 601.422 196.23 602.034 195.618 602.478C195.006 602.922 194.19 603.144 193.17 603.144ZM202.128 603.144C201.156 603.144 200.424 602.88 199.932 602.352C199.452 601.824 199.212 601.068 199.212 600.084V595.152H197.88C197.532 595.152 197.358 595.002 197.358 594.702C197.358 594.414 197.532 594.27 197.88 594.27H199.212V592.02C199.212 591.648 199.398 591.462 199.77 591.462C200.13 591.462 200.31 591.648 200.31 592.02V594.27H202.74C203.076 594.27 203.244 594.414 203.244 594.702C203.244 595.002 203.076 595.152 202.74 595.152H200.31V599.94C200.31 600.672 200.46 601.23 200.76 601.614C201.06 601.998 201.558 602.19 202.254 602.19C202.494 602.19 202.692 602.166 202.848 602.118C203.004 602.058 203.142 602.028 203.262 602.028C203.478 602.028 203.586 602.178 203.586 602.478C203.586 602.574 203.562 602.67 203.514 602.766C203.478 602.85 203.406 602.91 203.298 602.946C203.166 602.994 202.986 603.036 202.758 603.072C202.53 603.12 202.32 603.144 202.128 603.144ZM212.872 603.144C212.056 603.144 211.348 602.964 210.748 602.604C210.148 602.232 209.68 601.71 209.344 601.038C209.02 600.354 208.858 599.55 208.858 598.626C208.858 597.714 209.02 596.922 209.344 596.25C209.68 595.566 210.148 595.038 210.748 594.666C211.348 594.294 212.056 594.108 212.872 594.108C213.7 594.108 214.414 594.294 215.014 594.666C215.614 595.038 216.076 595.566 216.4 596.25C216.736 596.922 216.904 597.714 216.904 598.626C216.904 599.55 216.736 600.354 216.4 601.038C216.076 601.71 215.614 602.232 215.014 602.604C214.414 602.964 213.7 603.144 212.872 603.144ZM212.872 602.226C213.76 602.226 214.468 601.914 214.996 601.29C215.524 600.654 215.788 599.766 215.788 598.626C215.788 597.486 215.524 596.604 214.996 595.98C214.468 595.356 213.76 595.044 212.872 595.044C211.984 595.044 211.276 595.356 210.748 595.98C210.232 596.604 209.974 597.486 209.974 598.626C209.974 599.766 210.232 600.654 210.748 601.29C211.276 601.914 211.984 602.226 212.872 602.226ZM220.126 603.108C219.754 603.108 219.568 602.922 219.568 602.55V595.152H218.29C217.954 595.152 217.786 595.002 217.786 594.702C217.786 594.414 217.954 594.27 218.29 594.27H219.568V593.838C219.568 591.642 220.618 590.454 222.718 590.274L223.204 590.238C223.432 590.226 223.576 590.292 223.636 590.436C223.708 590.568 223.714 590.712 223.654 590.868C223.594 591.024 223.48 591.108 223.312 591.12L222.808 591.174C222.064 591.234 221.518 591.48 221.17 591.912C220.834 592.332 220.666 592.944 220.666 593.748V594.27H222.808C223.144 594.27 223.312 594.414 223.312 594.702C223.312 595.002 223.144 595.152 222.808 595.152H220.666V602.55C220.666 602.922 220.486 603.108 220.126 603.108ZM231.273 606.348C231.045 606.348 230.895 606.264 230.823 606.096C230.763 605.94 230.775 605.754 230.859 605.538L231.993 602.964L228.573 594.972C228.477 594.756 228.471 594.564 228.555 594.396C228.639 594.228 228.807 594.144 229.059 594.144C229.311 594.144 229.497 594.294 229.617 594.594L232.587 601.794L235.575 594.594C235.647 594.426 235.725 594.312 235.809 594.252C235.893 594.18 236.013 594.144 236.169 594.144C236.397 594.144 236.541 594.228 236.601 594.396C236.673 594.564 236.667 594.75 236.583 594.954L231.885 605.916C231.741 606.204 231.537 606.348 231.273 606.348ZM241.964 603.144C241.148 603.144 240.44 602.964 239.84 602.604C239.24 602.232 238.772 601.71 238.436 601.038C238.112 600.354 237.95 599.55 237.95 598.626C237.95 597.714 238.112 596.922 238.436 596.25C238.772 595.566 239.24 595.038 239.84 594.666C240.44 594.294 241.148 594.108 241.964 594.108C242.792 594.108 243.506 594.294 244.106 594.666C244.706 595.038 245.168 595.566 245.492 596.25C245.828 596.922 245.996 597.714 245.996 598.626C245.996 599.55 245.828 600.354 245.492 601.038C245.168 601.71 244.706 602.232 244.106 602.604C243.506 602.964 242.792 603.144 241.964 603.144ZM241.964 602.226C242.852 602.226 243.56 601.914 244.088 601.29C244.616 600.654 244.88 599.766 244.88 598.626C244.88 597.486 244.616 596.604 244.088 595.98C243.56 595.356 242.852 595.044 241.964 595.044C241.076 595.044 240.368 595.356 239.84 595.98C239.324 596.604 239.066 597.486 239.066 598.626C239.066 599.766 239.324 600.654 239.84 601.29C240.368 601.914 241.076 602.226 241.964 602.226ZM251.412 603.144C249.336 603.144 248.298 602.016 248.298 599.76V594.72C248.298 594.336 248.484 594.144 248.856 594.144C249.216 594.144 249.396 594.336 249.396 594.72V599.706C249.396 600.558 249.57 601.188 249.918 601.596C250.266 602.004 250.812 602.208 251.556 602.208C252.36 602.208 253.014 601.938 253.518 601.398C254.034 600.858 254.292 600.138 254.292 599.238V594.72C254.292 594.336 254.478 594.144 254.85 594.144C255.21 594.144 255.39 594.336 255.39 594.72V602.55C255.39 602.922 255.216 603.108 254.868 603.108C254.508 603.108 254.328 602.922 254.328 602.55V601.452C254.04 602.004 253.638 602.424 253.122 602.712C252.618 603 252.048 603.144 251.412 603.144ZM258.841 603.108C258.469 603.108 258.283 602.922 258.283 602.55V594.72C258.283 594.336 258.469 594.144 258.841 594.144C259.189 594.144 259.363 594.336 259.363 594.72V595.854C259.627 595.29 260.017 594.858 260.533 594.558C261.061 594.258 261.667 594.102 262.351 594.09C262.495 594.078 262.615 594.108 262.711 594.18C262.807 594.252 262.855 594.366 262.855 594.522C262.867 594.858 262.693 595.044 262.333 595.08L262.081 595.098C261.229 595.17 260.569 595.452 260.101 595.944C259.633 596.424 259.399 597.072 259.399 597.888V602.55C259.399 602.922 259.213 603.108 258.841 603.108ZM269.528 603.108C269.156 603.108 268.97 602.922 268.97 602.55V594.72C268.97 594.336 269.156 594.144 269.528 594.144C269.876 594.144 270.05 594.336 270.05 594.72V595.836C270.338 595.26 270.752 594.828 271.292 594.54C271.832 594.252 272.432 594.108 273.092 594.108C275.168 594.108 276.206 595.236 276.206 597.492V602.55C276.206 602.922 276.026 603.108 275.666 603.108C275.294 603.108 275.108 602.922 275.108 602.55V597.582C275.108 596.718 274.934 596.082 274.586 595.674C274.238 595.266 273.686 595.062 272.93 595.062C272.066 595.062 271.37 595.332 270.842 595.872C270.326 596.4 270.068 597.114 270.068 598.014V602.55C270.068 602.922 269.888 603.108 269.528 603.108ZM282.841 603.144C281.497 603.144 280.435 602.748 279.655 601.956C278.887 601.152 278.503 600.054 278.503 598.662C278.503 597.762 278.677 596.97 279.025 596.286C279.373 595.602 279.853 595.068 280.465 594.684C281.089 594.3 281.803 594.108 282.607 594.108C283.771 594.108 284.677 594.486 285.325 595.242C285.973 595.998 286.297 597.036 286.297 598.356C286.297 598.692 286.129 598.86 285.793 598.86H279.583C279.619 599.94 279.913 600.774 280.465 601.362C281.029 601.938 281.809 602.226 282.805 602.226C283.249 602.226 283.675 602.172 284.083 602.064C284.503 601.944 284.911 601.734 285.307 601.434C285.523 601.29 285.709 601.26 285.865 601.344C286.021 601.416 286.105 601.542 286.117 601.722C286.141 601.89 286.051 602.046 285.847 602.19C285.463 602.502 284.995 602.742 284.443 602.91C283.903 603.066 283.369 603.144 282.841 603.144ZM282.625 594.99C281.713 594.99 280.999 595.278 280.483 595.854C279.979 596.418 279.685 597.15 279.601 598.05H285.307C285.283 597.09 285.043 596.34 284.587 595.8C284.131 595.26 283.477 594.99 282.625 594.99ZM292.333 603.144C290.989 603.144 289.927 602.748 289.147 601.956C288.379 601.152 287.995 600.054 287.995 598.662C287.995 597.762 288.169 596.97 288.517 596.286C288.865 595.602 289.345 595.068 289.957 594.684C290.581 594.3 291.295 594.108 292.099 594.108C293.263 594.108 294.169 594.486 294.817 595.242C295.465 595.998 295.789 597.036 295.789 598.356C295.789 598.692 295.621 598.86 295.285 598.86H289.075C289.111 599.94 289.405 600.774 289.957 601.362C290.521 601.938 291.301 602.226 292.297 602.226C292.741 602.226 293.167 602.172 293.575 602.064C293.995 601.944 294.403 601.734 294.799 601.434C295.015 601.29 295.201 601.26 295.357 601.344C295.513 601.416 295.597 601.542 295.609 601.722C295.633 601.89 295.543 602.046 295.339 602.19C294.955 602.502 294.487 602.742 293.935 602.91C293.395 603.066 292.861 603.144 292.333 603.144ZM292.117 594.99C291.205 594.99 290.491 595.278 289.975 595.854C289.471 596.418 289.177 597.15 289.093 598.05H294.799C294.775 597.09 294.535 596.34 294.079 595.8C293.623 595.26 292.969 594.99 292.117 594.99ZM301.357 603.144C300.565 603.144 299.881 602.964 299.305 602.604C298.729 602.232 298.279 601.71 297.955 601.038C297.643 600.354 297.487 599.55 297.487 598.626C297.487 597.246 297.835 596.148 298.531 595.332C299.227 594.516 300.169 594.108 301.357 594.108C302.053 594.108 302.665 594.27 303.193 594.594C303.733 594.906 304.135 595.338 304.399 595.89V590.76C304.399 590.388 304.579 590.202 304.939 590.202C305.311 590.202 305.497 590.388 305.497 590.76V602.55C305.497 602.922 305.317 603.108 304.957 603.108C304.585 603.108 304.399 602.922 304.399 602.55V601.362C304.135 601.914 303.733 602.352 303.193 602.676C302.665 602.988 302.053 603.144 301.357 603.144ZM301.501 602.226C302.389 602.226 303.097 601.914 303.625 601.29C304.153 600.654 304.417 599.766 304.417 598.626C304.417 597.486 304.153 596.604 303.625 595.98C303.097 595.356 302.389 595.044 301.501 595.044C300.613 595.044 299.905 595.356 299.377 595.98C298.861 596.604 298.603 597.486 298.603 598.626C298.603 599.766 298.861 600.654 299.377 601.29C299.905 601.914 300.613 602.226 301.501 602.226ZM311.224 603.144C310.684 603.144 310.144 603.072 309.604 602.928C309.076 602.784 308.572 602.538 308.092 602.19C307.936 602.094 307.864 601.962 307.876 601.794C307.888 601.614 307.954 601.476 308.074 601.38C308.206 601.284 308.368 601.296 308.56 601.416C309.028 601.728 309.484 601.944 309.928 602.064C310.372 602.184 310.816 602.244 311.26 602.244C312.004 602.244 312.562 602.112 312.934 601.848C313.318 601.572 313.51 601.194 313.51 600.714C313.51 600.342 313.384 600.048 313.132 599.832C312.88 599.616 312.484 599.442 311.944 599.31L310.378 598.95C308.902 598.614 308.164 597.852 308.164 596.664C308.164 595.896 308.464 595.278 309.064 594.81C309.664 594.342 310.456 594.108 311.44 594.108C311.956 594.108 312.454 594.186 312.934 594.342C313.426 594.498 313.852 594.738 314.212 595.062C314.368 595.182 314.434 595.326 314.41 595.494C314.386 595.662 314.302 595.788 314.158 595.872C314.026 595.956 313.87 595.932 313.69 595.8C313.342 595.536 312.976 595.344 312.592 595.224C312.208 595.092 311.818 595.026 311.422 595.026C310.726 595.026 310.186 595.17 309.802 595.458C309.43 595.746 309.244 596.136 309.244 596.628C309.244 597 309.358 597.3 309.586 597.528C309.814 597.756 310.186 597.93 310.702 598.05L312.268 598.41C313.048 598.59 313.63 598.86 314.014 599.22C314.398 599.568 314.59 600.042 314.59 600.642C314.59 601.422 314.284 602.034 313.672 602.478C313.06 602.922 312.244 603.144 311.224 603.144ZM35.7093 628.144C35.0013 628.144 34.3773 627.988 33.8373 627.676C33.3093 627.352 32.9133 626.914 32.6493 626.362V627.55C32.6493 627.922 32.4693 628.108 32.1093 628.108C31.7373 628.108 31.5513 627.922 31.5513 627.55V615.76C31.5513 615.388 31.7373 615.202 32.1093 615.202C32.4693 615.202 32.6493 615.388 32.6493 615.76V620.89C32.9133 620.338 33.3093 619.906 33.8373 619.594C34.3773 619.27 35.0013 619.108 35.7093 619.108C36.8853 619.108 37.8213 619.516 38.5173 620.332C39.2253 621.148 39.5793 622.246 39.5793 623.626C39.5793 624.55 39.4173 625.354 39.0933 626.038C38.7813 626.71 38.3313 627.232 37.7433 627.604C37.1673 627.964 36.4893 628.144 35.7093 628.144ZM35.5473 627.226C36.4353 627.226 37.1433 626.914 37.6713 626.29C38.1993 625.654 38.4633 624.766 38.4633 623.626C38.4633 622.486 38.1993 621.604 37.6713 620.98C37.1433 620.356 36.4353 620.044 35.5473 620.044C34.6593 620.044 33.9513 620.356 33.4233 620.98C32.8953 621.604 32.6313 622.486 32.6313 623.626C32.6313 624.766 32.8953 625.654 33.4233 626.29C33.9513 626.914 34.6593 627.226 35.5473 627.226ZM44.6048 628.144C44.0168 628.144 43.4888 628.03 43.0208 627.802C42.5648 627.574 42.1988 627.262 41.9228 626.866C41.6588 626.47 41.5268 626.026 41.5268 625.534C41.5268 624.886 41.6888 624.382 42.0128 624.022C42.3368 623.65 42.8828 623.386 43.6508 623.23C44.4188 623.074 45.4748 622.996 46.8188 622.996H47.3768V622.348C47.3768 621.544 47.2148 620.962 46.8908 620.602C46.5668 620.23 46.0508 620.044 45.3428 620.044C44.8868 620.044 44.4428 620.104 44.0108 620.224C43.5788 620.344 43.1288 620.536 42.6608 620.8C42.4448 620.92 42.2708 620.926 42.1388 620.818C42.0188 620.698 41.9588 620.548 41.9588 620.368C41.9708 620.176 42.0728 620.032 42.2648 619.936C42.7568 619.66 43.2668 619.456 43.7948 619.324C44.3228 619.18 44.8328 619.108 45.3248 619.108C46.3808 619.108 47.1608 619.378 47.6648 619.918C48.1808 620.458 48.4388 621.286 48.4388 622.402V627.55C48.4388 627.922 48.2708 628.108 47.9348 628.108C47.5748 628.108 47.3948 627.922 47.3948 627.55V626.434C47.1548 626.974 46.7888 627.394 46.2968 627.694C45.8168 627.994 45.2528 628.144 44.6048 628.144ZM44.7488 627.262C45.2648 627.262 45.7148 627.142 46.0988 626.902C46.4948 626.65 46.8068 626.308 47.0348 625.876C47.2628 625.444 47.3768 624.952 47.3768 624.4V623.806H46.8368C45.7568 623.806 44.9108 623.854 44.2988 623.95C43.6988 624.046 43.2788 624.214 43.0388 624.454C42.7988 624.694 42.6788 625.024 42.6788 625.444C42.6788 625.984 42.8648 626.422 43.2368 626.758C43.6088 627.094 44.1128 627.262 44.7488 627.262ZM54.1531 628.144C53.6131 628.144 53.0731 628.072 52.5331 627.928C52.0051 627.784 51.5011 627.538 51.0211 627.19C50.8651 627.094 50.7931 626.962 50.8051 626.794C50.8171 626.614 50.8831 626.476 51.0031 626.38C51.1351 626.284 51.2971 626.296 51.4891 626.416C51.9571 626.728 52.4131 626.944 52.8571 627.064C53.3011 627.184 53.7451 627.244 54.1891 627.244C54.9331 627.244 55.4911 627.112 55.8631 626.848C56.2471 626.572 56.4391 626.194 56.4391 625.714C56.4391 625.342 56.3131 625.048 56.0611 624.832C55.8091 624.616 55.4131 624.442 54.8731 624.31L53.3071 623.95C51.8311 623.614 51.0931 622.852 51.0931 621.664C51.0931 620.896 51.3931 620.278 51.9931 619.81C52.5931 619.342 53.3851 619.108 54.3691 619.108C54.8851 619.108 55.3831 619.186 55.8631 619.342C56.3551 619.498 56.7811 619.738 57.1411 620.062C57.2971 620.182 57.3631 620.326 57.3391 620.494C57.3151 620.662 57.2311 620.788 57.0871 620.872C56.9551 620.956 56.7991 620.932 56.6191 620.8C56.2711 620.536 55.9051 620.344 55.5211 620.224C55.1371 620.092 54.7471 620.026 54.3511 620.026C53.6551 620.026 53.1151 620.17 52.7311 620.458C52.3591 620.746 52.1731 621.136 52.1731 621.628C52.1731 622 52.2871 622.3 52.5151 622.528C52.7431 622.756 53.1151 622.93 53.6311 623.05L55.1971 623.41C55.9771 623.59 56.5591 623.86 56.9431 624.22C57.3271 624.568 57.5191 625.042 57.5191 625.642C57.5191 626.422 57.2131 627.034 56.6011 627.478C55.9891 627.922 55.1731 628.144 54.1531 628.144ZM63.7028 628.144C62.3588 628.144 61.2968 627.748 60.5168 626.956C59.7488 626.152 59.3648 625.054 59.3648 623.662C59.3648 622.762 59.5388 621.97 59.8868 621.286C60.2348 620.602 60.7148 620.068 61.3268 619.684C61.9508 619.3 62.6648 619.108 63.4688 619.108C64.6328 619.108 65.5388 619.486 66.1868 620.242C66.8348 620.998 67.1588 622.036 67.1588 623.356C67.1588 623.692 66.9908 623.86 66.6548 623.86H60.4448C60.4808 624.94 60.7748 625.774 61.3268 626.362C61.8908 626.938 62.6708 627.226 63.6668 627.226C64.1108 627.226 64.5368 627.172 64.9448 627.064C65.3648 626.944 65.7728 626.734 66.1688 626.434C66.3848 626.29 66.5708 626.26 66.7268 626.344C66.8828 626.416 66.9668 626.542 66.9788 626.722C67.0028 626.89 66.9128 627.046 66.7088 627.19C66.3248 627.502 65.8568 627.742 65.3048 627.91C64.7648 628.066 64.2308 628.144 63.7028 628.144ZM63.4868 619.99C62.5748 619.99 61.8608 620.278 61.3448 620.854C60.8408 621.418 60.5468 622.15 60.4628 623.05H66.1688C66.1448 622.09 65.9048 621.34 65.4488 620.8C64.9928 620.26 64.3388 619.99 63.4868 619.99ZM72.727 628.144C71.935 628.144 71.251 627.964 70.675 627.604C70.099 627.232 69.649 626.71 69.325 626.038C69.013 625.354 68.857 624.55 68.857 623.626C68.857 622.246 69.205 621.148 69.901 620.332C70.597 619.516 71.539 619.108 72.727 619.108C73.423 619.108 74.035 619.27 74.563 619.594C75.103 619.906 75.505 620.338 75.769 620.89V615.76C75.769 615.388 75.949 615.202 76.309 615.202C76.681 615.202 76.867 615.388 76.867 615.76V627.55C76.867 627.922 76.687 628.108 76.327 628.108C75.955 628.108 75.769 627.922 75.769 627.55V626.362C75.505 626.914 75.103 627.352 74.563 627.676C74.035 627.988 73.423 628.144 72.727 628.144ZM72.871 627.226C73.759 627.226 74.467 626.914 74.995 626.29C75.523 625.654 75.787 624.766 75.787 623.626C75.787 622.486 75.523 621.604 74.995 620.98C74.467 620.356 73.759 620.044 72.871 620.044C71.983 620.044 71.275 620.356 70.747 620.98C70.231 621.604 69.973 622.486 69.973 623.626C69.973 624.766 70.231 625.654 70.747 626.29C71.275 626.914 71.983 627.226 72.871 627.226ZM87.7597 628.144C86.9437 628.144 86.2357 627.964 85.6357 627.604C85.0357 627.232 84.5677 626.71 84.2317 626.038C83.9077 625.354 83.7457 624.55 83.7457 623.626C83.7457 622.714 83.9077 621.922 84.2317 621.25C84.5677 620.566 85.0357 620.038 85.6357 619.666C86.2357 619.294 86.9437 619.108 87.7597 619.108C88.5877 619.108 89.3017 619.294 89.9017 619.666C90.5017 620.038 90.9637 620.566 91.2877 621.25C91.6237 621.922 91.7917 622.714 91.7917 623.626C91.7917 624.55 91.6237 625.354 91.2877 626.038C90.9637 626.71 90.5017 627.232 89.9017 627.604C89.3017 627.964 88.5877 628.144 87.7597 628.144ZM87.7597 627.226C88.6477 627.226 89.3557 626.914 89.8837 626.29C90.4117 625.654 90.6757 624.766 90.6757 623.626C90.6757 622.486 90.4117 621.604 89.8837 620.98C89.3557 620.356 88.6477 620.044 87.7597 620.044C86.8717 620.044 86.1637 620.356 85.6357 620.98C85.1197 621.604 84.8617 622.486 84.8617 623.626C84.8617 624.766 85.1197 625.654 85.6357 626.29C86.1637 626.914 86.8717 627.226 87.7597 627.226ZM94.6875 628.108C94.3155 628.108 94.1295 627.922 94.1295 627.55V619.72C94.1295 619.336 94.3155 619.144 94.6875 619.144C95.0355 619.144 95.2095 619.336 95.2095 619.72V620.836C95.4975 620.26 95.9115 619.828 96.4515 619.54C96.9915 619.252 97.5915 619.108 98.2515 619.108C100.327 619.108 101.365 620.236 101.365 622.492V627.55C101.365 627.922 101.185 628.108 100.825 628.108C100.453 628.108 100.267 627.922 100.267 627.55V622.582C100.267 621.718 100.093 621.082 99.7455 620.674C99.3975 620.266 98.8455 620.062 98.0895 620.062C97.2255 620.062 96.5295 620.332 96.0015 620.872C95.4855 621.4 95.2275 622.114 95.2275 623.014V627.55C95.2275 627.922 95.0475 628.108 94.6875 628.108ZM110.573 631.348C110.345 631.348 110.195 631.264 110.123 631.096C110.063 630.94 110.075 630.754 110.159 630.538L111.293 627.964L107.873 619.972C107.777 619.756 107.771 619.564 107.855 619.396C107.939 619.228 108.107 619.144 108.359 619.144C108.611 619.144 108.797 619.294 108.917 619.594L111.887 626.794L114.875 619.594C114.947 619.426 115.025 619.312 115.109 619.252C115.193 619.18 115.313 619.144 115.469 619.144C115.697 619.144 115.841 619.228 115.901 619.396C115.973 619.564 115.967 619.75 115.883 619.954L111.185 630.916C111.041 631.204 110.837 631.348 110.573 631.348ZM121.264 628.144C120.448 628.144 119.74 627.964 119.14 627.604C118.54 627.232 118.072 626.71 117.736 626.038C117.412 625.354 117.25 624.55 117.25 623.626C117.25 622.714 117.412 621.922 117.736 621.25C118.072 620.566 118.54 620.038 119.14 619.666C119.74 619.294 120.448 619.108 121.264 619.108C122.092 619.108 122.806 619.294 123.406 619.666C124.006 620.038 124.468 620.566 124.792 621.25C125.128 621.922 125.296 622.714 125.296 623.626C125.296 624.55 125.128 625.354 124.792 626.038C124.468 626.71 124.006 627.232 123.406 627.604C122.806 627.964 122.092 628.144 121.264 628.144ZM121.264 627.226C122.152 627.226 122.86 626.914 123.388 626.29C123.916 625.654 124.18 624.766 124.18 623.626C124.18 622.486 123.916 621.604 123.388 620.98C122.86 620.356 122.152 620.044 121.264 620.044C120.376 620.044 119.668 620.356 119.14 620.98C118.624 621.604 118.366 622.486 118.366 623.626C118.366 624.766 118.624 625.654 119.14 626.29C119.668 626.914 120.376 627.226 121.264 627.226ZM130.711 628.144C128.635 628.144 127.597 627.016 127.597 624.76V619.72C127.597 619.336 127.783 619.144 128.155 619.144C128.515 619.144 128.695 619.336 128.695 619.72V624.706C128.695 625.558 128.869 626.188 129.217 626.596C129.565 627.004 130.111 627.208 130.855 627.208C131.659 627.208 132.313 626.938 132.817 626.398C133.333 625.858 133.591 625.138 133.591 624.238V619.72C133.591 619.336 133.777 619.144 134.149 619.144C134.509 619.144 134.689 619.336 134.689 619.72V627.55C134.689 627.922 134.515 628.108 134.167 628.108C133.807 628.108 133.627 627.922 133.627 627.55V626.452C133.339 627.004 132.937 627.424 132.421 627.712C131.917 628 131.347 628.144 130.711 628.144ZM138.141 628.108C137.769 628.108 137.583 627.922 137.583 627.55V619.72C137.583 619.336 137.769 619.144 138.141 619.144C138.489 619.144 138.663 619.336 138.663 619.72V620.854C138.927 620.29 139.317 619.858 139.833 619.558C140.361 619.258 140.967 619.102 141.651 619.09C141.795 619.078 141.915 619.108 142.011 619.18C142.107 619.252 142.155 619.366 142.155 619.522C142.167 619.858 141.993 620.044 141.633 620.08L141.381 620.098C140.529 620.17 139.869 620.452 139.401 620.944C138.933 621.424 138.699 622.072 138.699 622.888V627.55C138.699 627.922 138.513 628.108 138.141 628.108ZM152.068 628.144C150.724 628.144 149.662 627.748 148.882 626.956C148.114 626.152 147.73 625.054 147.73 623.662C147.73 622.762 147.904 621.97 148.252 621.286C148.6 620.602 149.08 620.068 149.692 619.684C150.316 619.3 151.03 619.108 151.834 619.108C152.998 619.108 153.904 619.486 154.552 620.242C155.2 620.998 155.524 622.036 155.524 623.356C155.524 623.692 155.356 623.86 155.02 623.86H148.81C148.846 624.94 149.14 625.774 149.692 626.362C150.256 626.938 151.036 627.226 152.032 627.226C152.476 627.226 152.902 627.172 153.31 627.064C153.73 626.944 154.138 626.734 154.534 626.434C154.75 626.29 154.936 626.26 155.092 626.344C155.248 626.416 155.332 626.542 155.344 626.722C155.368 626.89 155.278 627.046 155.074 627.19C154.69 627.502 154.222 627.742 153.67 627.91C153.13 628.066 152.596 628.144 152.068 628.144ZM151.852 619.99C150.94 619.99 150.226 620.278 149.71 620.854C149.206 621.418 148.912 622.15 148.828 623.05H154.534C154.51 622.09 154.27 621.34 153.814 620.8C153.358 620.26 152.704 619.99 151.852 619.99ZM157.476 628.126C157.296 628.126 157.158 628.048 157.062 627.892C156.966 627.724 157.008 627.526 157.188 627.298L160.23 623.482L157.404 619.972C157.212 619.744 157.164 619.552 157.26 619.396C157.368 619.228 157.506 619.144 157.674 619.144C157.926 619.144 158.136 619.258 158.304 619.486L160.878 622.726L163.47 619.486C163.638 619.258 163.842 619.144 164.082 619.144C164.262 619.144 164.4 619.228 164.496 619.396C164.592 619.552 164.544 619.744 164.352 619.972L161.526 623.5L164.568 627.298C164.748 627.526 164.79 627.724 164.694 627.892C164.598 628.048 164.46 628.126 164.28 628.126C164.028 628.126 163.812 628.012 163.632 627.784L160.878 624.31L158.106 627.784C157.938 628.012 157.728 628.126 157.476 628.126ZM167.496 631.348C167.124 631.348 166.938 631.162 166.938 630.79V619.72C166.938 619.336 167.124 619.144 167.496 619.144C167.856 619.144 168.036 619.336 168.036 619.72V620.908C168.3 620.356 168.696 619.918 169.224 619.594C169.764 619.27 170.388 619.108 171.096 619.108C171.876 619.108 172.554 619.294 173.13 619.666C173.718 620.038 174.168 620.56 174.48 621.232C174.804 621.904 174.966 622.702 174.966 623.626C174.966 624.55 174.804 625.354 174.48 626.038C174.168 626.71 173.718 627.232 173.13 627.604C172.554 627.964 171.876 628.144 171.096 628.144C170.388 628.144 169.764 627.988 169.224 627.676C168.696 627.364 168.3 626.932 168.036 626.38V630.79C168.036 631.162 167.856 631.348 167.496 631.348ZM170.934 627.226C171.822 627.226 172.53 626.914 173.058 626.29C173.586 625.654 173.85 624.766 173.85 623.626C173.85 622.486 173.586 621.604 173.058 620.98C172.53 620.356 171.822 620.044 170.934 620.044C170.046 620.044 169.338 620.356 168.81 620.98C168.282 621.604 168.018 622.486 168.018 623.626C168.018 624.766 168.282 625.654 168.81 626.29C169.338 626.914 170.046 627.226 170.934 627.226ZM181.09 628.144C179.746 628.144 178.684 627.748 177.904 626.956C177.136 626.152 176.752 625.054 176.752 623.662C176.752 622.762 176.926 621.97 177.274 621.286C177.622 620.602 178.102 620.068 178.714 619.684C179.338 619.3 180.052 619.108 180.856 619.108C182.02 619.108 182.926 619.486 183.574 620.242C184.222 620.998 184.546 622.036 184.546 623.356C184.546 623.692 184.378 623.86 184.042 623.86H177.832C177.868 624.94 178.162 625.774 178.714 626.362C179.278 626.938 180.058 627.226 181.054 627.226C181.498 627.226 181.924 627.172 182.332 627.064C182.752 626.944 183.16 626.734 183.556 626.434C183.772 626.29 183.958 626.26 184.114 626.344C184.27 626.416 184.354 626.542 184.366 626.722C184.39 626.89 184.3 627.046 184.096 627.19C183.712 627.502 183.244 627.742 182.692 627.91C182.152 628.066 181.618 628.144 181.09 628.144ZM180.874 619.99C179.962 619.99 179.248 620.278 178.732 620.854C178.228 621.418 177.934 622.15 177.85 623.05H183.556C183.532 622.09 183.292 621.34 182.836 620.8C182.38 620.26 181.726 619.99 180.874 619.99ZM187.342 628.108C186.97 628.108 186.784 627.922 186.784 627.55V619.72C186.784 619.336 186.97 619.144 187.342 619.144C187.69 619.144 187.864 619.336 187.864 619.72V620.854C188.128 620.29 188.518 619.858 189.034 619.558C189.562 619.258 190.168 619.102 190.852 619.09C190.996 619.078 191.116 619.108 191.212 619.18C191.308 619.252 191.356 619.366 191.356 619.522C191.368 619.858 191.194 620.044 190.834 620.08L190.582 620.098C189.73 620.17 189.07 620.452 188.602 620.944C188.134 621.424 187.9 622.072 187.9 622.888V627.55C187.9 627.922 187.714 628.108 187.342 628.108ZM193.494 617.02C192.966 617.02 192.702 616.768 192.702 616.264C192.702 615.772 192.966 615.526 193.494 615.526C194.022 615.526 194.286 615.772 194.286 616.264C194.286 616.768 194.022 617.02 193.494 617.02ZM193.494 628.072C193.122 628.072 192.936 627.874 192.936 627.478V619.774C192.936 619.39 193.122 619.198 193.494 619.198C193.854 619.198 194.034 619.39 194.034 619.774V627.478C194.034 627.874 193.854 628.072 193.494 628.072ZM200.724 628.144C199.38 628.144 198.318 627.748 197.538 626.956C196.77 626.152 196.386 625.054 196.386 623.662C196.386 622.762 196.56 621.97 196.908 621.286C197.256 620.602 197.736 620.068 198.348 619.684C198.972 619.3 199.686 619.108 200.49 619.108C201.654 619.108 202.56 619.486 203.208 620.242C203.856 620.998 204.18 622.036 204.18 623.356C204.18 623.692 204.012 623.86 203.676 623.86H197.466C197.502 624.94 197.796 625.774 198.348 626.362C198.912 626.938 199.692 627.226 200.688 627.226C201.132 627.226 201.558 627.172 201.966 627.064C202.386 626.944 202.794 626.734 203.19 626.434C203.406 626.29 203.592 626.26 203.748 626.344C203.904 626.416 203.988 626.542 204 626.722C204.024 626.89 203.934 627.046 203.73 627.19C203.346 627.502 202.878 627.742 202.326 627.91C201.786 628.066 201.252 628.144 200.724 628.144ZM200.508 619.99C199.596 619.99 198.882 620.278 198.366 620.854C197.862 621.418 197.568 622.15 197.484 623.05H203.19C203.166 622.09 202.926 621.34 202.47 620.8C202.014 620.26 201.36 619.99 200.508 619.99ZM206.977 628.108C206.605 628.108 206.419 627.922 206.419 627.55V619.72C206.419 619.336 206.605 619.144 206.977 619.144C207.325 619.144 207.499 619.336 207.499 619.72V620.836C207.787 620.26 208.201 619.828 208.741 619.54C209.281 619.252 209.881 619.108 210.541 619.108C212.617 619.108 213.655 620.236 213.655 622.492V627.55C213.655 627.922 213.475 628.108 213.115 628.108C212.743 628.108 212.557 627.922 212.557 627.55V622.582C212.557 621.718 212.383 621.082 212.035 620.674C211.687 620.266 211.135 620.062 210.379 620.062C209.515 620.062 208.819 620.332 208.291 620.872C207.775 621.4 207.517 622.114 207.517 623.014V627.55C207.517 627.922 207.337 628.108 206.977 628.108ZM220.055 628.144C219.203 628.144 218.471 627.958 217.859 627.586C217.247 627.202 216.773 626.668 216.437 625.984C216.113 625.288 215.951 624.484 215.951 623.572C215.951 622.192 216.311 621.106 217.031 620.314C217.763 619.51 218.771 619.108 220.055 619.108C220.499 619.108 220.955 619.186 221.423 619.342C221.903 619.498 222.329 619.744 222.701 620.08C222.857 620.2 222.917 620.344 222.881 620.512C222.845 620.68 222.749 620.806 222.593 620.89C222.449 620.962 222.287 620.926 222.107 620.782C221.771 620.506 221.429 620.32 221.081 620.224C220.733 620.116 220.403 620.062 220.091 620.062C219.119 620.062 218.369 620.368 217.841 620.98C217.325 621.592 217.067 622.462 217.067 623.59C217.067 624.718 217.325 625.606 217.841 626.254C218.369 626.89 219.119 627.208 220.091 627.208C220.403 627.208 220.733 627.16 221.081 627.064C221.429 626.956 221.771 626.764 222.107 626.488C222.299 626.344 222.461 626.314 222.593 626.398C222.737 626.47 222.821 626.59 222.845 626.758C222.881 626.926 222.827 627.07 222.683 627.19C222.311 627.526 221.891 627.772 221.423 627.928C220.955 628.072 220.499 628.144 220.055 628.144ZM228.375 628.144C227.031 628.144 225.969 627.748 225.189 626.956C224.421 626.152 224.037 625.054 224.037 623.662C224.037 622.762 224.211 621.97 224.559 621.286C224.907 620.602 225.387 620.068 225.999 619.684C226.623 619.3 227.337 619.108 228.141 619.108C229.305 619.108 230.211 619.486 230.859 620.242C231.507 620.998 231.831 622.036 231.831 623.356C231.831 623.692 231.663 623.86 231.327 623.86H225.117C225.153 624.94 225.447 625.774 225.999 626.362C226.563 626.938 227.343 627.226 228.339 627.226C228.783 627.226 229.209 627.172 229.617 627.064C230.037 626.944 230.445 626.734 230.841 626.434C231.057 626.29 231.243 626.26 231.399 626.344C231.555 626.416 231.639 626.542 231.651 626.722C231.675 626.89 231.585 627.046 231.381 627.19C230.997 627.502 230.529 627.742 229.977 627.91C229.437 628.066 228.903 628.144 228.375 628.144ZM228.159 619.99C227.247 619.99 226.533 620.278 226.017 620.854C225.513 621.418 225.219 622.15 225.135 623.05H230.841C230.817 622.09 230.577 621.34 230.121 620.8C229.665 620.26 229.011 619.99 228.159 619.99ZM237.399 628.144C236.607 628.144 235.923 627.964 235.347 627.604C234.771 627.232 234.321 626.71 233.997 626.038C233.685 625.354 233.529 624.55 233.529 623.626C233.529 622.246 233.877 621.148 234.573 620.332C235.269 619.516 236.211 619.108 237.399 619.108C238.095 619.108 238.707 619.27 239.235 619.594C239.775 619.906 240.177 620.338 240.441 620.89V615.76C240.441 615.388 240.621 615.202 240.981 615.202C241.353 615.202 241.539 615.388 241.539 615.76V627.55C241.539 627.922 241.359 628.108 240.999 628.108C240.627 628.108 240.441 627.922 240.441 627.55V626.362C240.177 626.914 239.775 627.352 239.235 627.676C238.707 627.988 238.095 628.144 237.399 628.144ZM237.543 627.226C238.431 627.226 239.139 626.914 239.667 626.29C240.195 625.654 240.459 624.766 240.459 623.626C240.459 622.486 240.195 621.604 239.667 620.98C239.139 620.356 238.431 620.044 237.543 620.044C236.655 620.044 235.947 620.356 235.419 620.98C234.903 621.604 234.645 622.486 234.645 623.626C234.645 624.766 234.903 625.654 235.419 626.29C235.947 626.914 236.655 627.226 237.543 627.226ZM251.658 628.144C251.07 628.144 250.542 628.03 250.074 627.802C249.618 627.574 249.252 627.262 248.976 626.866C248.712 626.47 248.58 626.026 248.58 625.534C248.58 624.886 248.742 624.382 249.066 624.022C249.39 623.65 249.936 623.386 250.704 623.23C251.472 623.074 252.528 622.996 253.872 622.996H254.43V622.348C254.43 621.544 254.268 620.962 253.944 620.602C253.62 620.23 253.104 620.044 252.396 620.044C251.94 620.044 251.496 620.104 251.064 620.224C250.632 620.344 250.182 620.536 249.714 620.8C249.498 620.92 249.324 620.926 249.192 620.818C249.072 620.698 249.012 620.548 249.012 620.368C249.024 620.176 249.126 620.032 249.318 619.936C249.81 619.66 250.32 619.456 250.848 619.324C251.376 619.18 251.886 619.108 252.378 619.108C253.434 619.108 254.214 619.378 254.718 619.918C255.234 620.458 255.492 621.286 255.492 622.402V627.55C255.492 627.922 255.324 628.108 254.988 628.108C254.628 628.108 254.448 627.922 254.448 627.55V626.434C254.208 626.974 253.842 627.394 253.35 627.694C252.87 627.994 252.306 628.144 251.658 628.144ZM251.802 627.262C252.318 627.262 252.768 627.142 253.152 626.902C253.548 626.65 253.86 626.308 254.088 625.876C254.316 625.444 254.43 624.952 254.43 624.4V623.806H253.89C252.81 623.806 251.964 623.854 251.352 623.95C250.752 624.046 250.332 624.214 250.092 624.454C249.852 624.694 249.732 625.024 249.732 625.444C249.732 625.984 249.918 626.422 250.29 626.758C250.662 627.094 251.166 627.262 251.802 627.262ZM258.92 628.108C258.548 628.108 258.362 627.922 258.362 627.55V619.72C258.362 619.336 258.548 619.144 258.92 619.144C259.268 619.144 259.442 619.336 259.442 619.72V620.836C259.73 620.26 260.144 619.828 260.684 619.54C261.224 619.252 261.824 619.108 262.484 619.108C264.56 619.108 265.598 620.236 265.598 622.492V627.55C265.598 627.922 265.418 628.108 265.058 628.108C264.686 628.108 264.5 627.922 264.5 627.55V622.582C264.5 621.718 264.326 621.082 263.978 620.674C263.63 620.266 263.078 620.062 262.322 620.062C261.458 620.062 260.762 620.332 260.234 620.872C259.718 621.4 259.46 622.114 259.46 623.014V627.55C259.46 627.922 259.28 628.108 258.92 628.108ZM271.764 628.144C270.972 628.144 270.288 627.964 269.712 627.604C269.136 627.232 268.686 626.71 268.362 626.038C268.05 625.354 267.894 624.55 267.894 623.626C267.894 622.246 268.242 621.148 268.938 620.332C269.634 619.516 270.576 619.108 271.764 619.108C272.46 619.108 273.072 619.27 273.6 619.594C274.14 619.906 274.542 620.338 274.806 620.89V615.76C274.806 615.388 274.986 615.202 275.346 615.202C275.718 615.202 275.904 615.388 275.904 615.76V627.55C275.904 627.922 275.724 628.108 275.364 628.108C274.992 628.108 274.806 627.922 274.806 627.55V626.362C274.542 626.914 274.14 627.352 273.6 627.676C273.072 627.988 272.46 628.144 271.764 628.144ZM271.908 627.226C272.796 627.226 273.504 626.914 274.032 626.29C274.56 625.654 274.824 624.766 274.824 623.626C274.824 622.486 274.56 621.604 274.032 620.98C273.504 620.356 272.796 620.044 271.908 620.044C271.02 620.044 270.312 620.356 269.784 620.98C269.268 621.604 269.01 622.486 269.01 623.626C269.01 624.766 269.268 625.654 269.784 626.29C270.312 626.914 271.02 627.226 271.908 627.226ZM283.881 628.108C283.509 628.108 283.323 627.922 283.323 627.55V619.72C283.323 619.336 283.509 619.144 283.881 619.144C284.229 619.144 284.403 619.336 284.403 619.72V620.836C284.691 620.26 285.105 619.828 285.645 619.54C286.185 619.252 286.785 619.108 287.445 619.108C289.521 619.108 290.559 620.236 290.559 622.492V627.55C290.559 627.922 290.379 628.108 290.019 628.108C289.647 628.108 289.461 627.922 289.461 627.55V622.582C289.461 621.718 289.287 621.082 288.939 620.674C288.591 620.266 288.039 620.062 287.283 620.062C286.419 620.062 285.723 620.332 285.195 620.872C284.679 621.4 284.421 622.114 284.421 623.014V627.55C284.421 627.922 284.241 628.108 283.881 628.108ZM297.193 628.144C295.849 628.144 294.787 627.748 294.007 626.956C293.239 626.152 292.855 625.054 292.855 623.662C292.855 622.762 293.029 621.97 293.377 621.286C293.725 620.602 294.205 620.068 294.817 619.684C295.441 619.3 296.155 619.108 296.959 619.108C298.123 619.108 299.029 619.486 299.677 620.242C300.325 620.998 300.649 622.036 300.649 623.356C300.649 623.692 300.481 623.86 300.145 623.86H293.935C293.971 624.94 294.265 625.774 294.817 626.362C295.381 626.938 296.161 627.226 297.157 627.226C297.601 627.226 298.027 627.172 298.435 627.064C298.855 626.944 299.263 626.734 299.659 626.434C299.875 626.29 300.061 626.26 300.217 626.344C300.373 626.416 300.457 626.542 300.469 626.722C300.493 626.89 300.403 627.046 300.199 627.19C299.815 627.502 299.347 627.742 298.795 627.91C298.255 628.066 297.721 628.144 297.193 628.144ZM296.977 619.99C296.065 619.99 295.351 620.278 294.835 620.854C294.331 621.418 294.037 622.15 293.953 623.05H299.659C299.635 622.09 299.395 621.34 298.939 620.8C298.483 620.26 297.829 619.99 296.977 619.99ZM306.685 628.144C305.341 628.144 304.279 627.748 303.499 626.956C302.731 626.152 302.347 625.054 302.347 623.662C302.347 622.762 302.521 621.97 302.869 621.286C303.217 620.602 303.697 620.068 304.309 619.684C304.933 619.3 305.647 619.108 306.451 619.108C307.615 619.108 308.521 619.486 309.169 620.242C309.817 620.998 310.141 622.036 310.141 623.356C310.141 623.692 309.973 623.86 309.637 623.86H303.427C303.463 624.94 303.757 625.774 304.309 626.362C304.873 626.938 305.653 627.226 306.649 627.226C307.093 627.226 307.519 627.172 307.927 627.064C308.347 626.944 308.755 626.734 309.151 626.434C309.367 626.29 309.553 626.26 309.709 626.344C309.865 626.416 309.949 626.542 309.961 626.722C309.985 626.89 309.895 627.046 309.691 627.19C309.307 627.502 308.839 627.742 308.287 627.91C307.747 628.066 307.213 628.144 306.685 628.144ZM306.469 619.99C305.557 619.99 304.843 620.278 304.327 620.854C303.823 621.418 303.529 622.15 303.445 623.05H309.151C309.127 622.09 308.887 621.34 308.431 620.8C307.975 620.26 307.321 619.99 306.469 619.99ZM315.709 628.144C314.917 628.144 314.233 627.964 313.657 627.604C313.081 627.232 312.631 626.71 312.307 626.038C311.995 625.354 311.839 624.55 311.839 623.626C311.839 622.246 312.187 621.148 312.883 620.332C313.579 619.516 314.521 619.108 315.709 619.108C316.405 619.108 317.017 619.27 317.545 619.594C318.085 619.906 318.487 620.338 318.751 620.89V615.76C318.751 615.388 318.931 615.202 319.291 615.202C319.663 615.202 319.849 615.388 319.849 615.76V627.55C319.849 627.922 319.669 628.108 319.309 628.108C318.937 628.108 318.751 627.922 318.751 627.55V626.362C318.487 626.914 318.085 627.352 317.545 627.676C317.017 627.988 316.405 628.144 315.709 628.144ZM315.853 627.226C316.741 627.226 317.449 626.914 317.977 626.29C318.505 625.654 318.769 624.766 318.769 623.626C318.769 622.486 318.505 621.604 317.977 620.98C317.449 620.356 316.741 620.044 315.853 620.044C314.965 620.044 314.257 620.356 313.729 620.98C313.213 621.604 312.955 622.486 312.955 623.626C312.955 624.766 313.213 625.654 313.729 626.29C314.257 626.914 314.965 627.226 315.853 627.226ZM325.577 628.144C325.037 628.144 324.497 628.072 323.957 627.928C323.429 627.784 322.925 627.538 322.445 627.19C322.289 627.094 322.217 626.962 322.229 626.794C322.241 626.614 322.307 626.476 322.427 626.38C322.559 626.284 322.721 626.296 322.913 626.416C323.381 626.728 323.837 626.944 324.281 627.064C324.725 627.184 325.169 627.244 325.613 627.244C326.357 627.244 326.915 627.112 327.287 626.848C327.671 626.572 327.863 626.194 327.863 625.714C327.863 625.342 327.737 625.048 327.485 624.832C327.233 624.616 326.837 624.442 326.297 624.31L324.731 623.95C323.255 623.614 322.517 622.852 322.517 621.664C322.517 620.896 322.817 620.278 323.417 619.81C324.017 619.342 324.809 619.108 325.793 619.108C326.309 619.108 326.807 619.186 327.287 619.342C327.779 619.498 328.205 619.738 328.565 620.062C328.721 620.182 328.787 620.326 328.763 620.494C328.739 620.662 328.655 620.788 328.511 620.872C328.379 620.956 328.223 620.932 328.043 620.8C327.695 620.536 327.329 620.344 326.945 620.224C326.561 620.092 326.171 620.026 325.775 620.026C325.079 620.026 324.539 620.17 324.155 620.458C323.783 620.746 323.597 621.136 323.597 621.628C323.597 622 323.711 622.3 323.939 622.528C324.167 622.756 324.539 622.93 325.055 623.05L326.621 623.41C327.401 623.59 327.983 623.86 328.367 624.22C328.751 624.568 328.943 625.042 328.943 625.642C328.943 626.422 328.637 627.034 328.025 627.478C327.413 627.922 326.597 628.144 325.577 628.144Z" fill="black"/>
<rect x="64" y="663" width="225" height="62" rx="31" stroke="url(#paint0_linear_84_92)" stroke-width="2"/>
<rect x="69" y="667" width="114" height="54" rx="27" fill="url(#paint1_linear_84_92)"/>
<path d="M89.6286 701.16C88.7753 701.16 88.3486 700.72 88.3486 699.84V688.2C88.3486 687.333 88.7819 686.9 89.6486 686.9H94.4686C96.0153 686.9 97.2086 687.273 98.0486 688.02C98.8886 688.753 99.3086 689.787 99.3086 691.12C99.3086 692.173 99.0353 693.047 98.4886 693.74C97.9419 694.42 97.1553 694.88 96.1286 695.12C96.8086 695.333 97.3686 695.847 97.8086 696.66L99.3086 699.44C99.5353 699.867 99.5753 700.26 99.4286 700.62C99.2953 700.98 98.9553 701.16 98.4086 701.16C98.0486 701.16 97.7553 701.087 97.5286 700.94C97.3019 700.78 97.1019 700.54 96.9286 700.22L94.9086 696.5C94.6686 696.047 94.3819 695.747 94.0486 695.6C93.7286 695.44 93.3153 695.36 92.8086 695.36H90.9086V699.84C90.9086 700.72 90.4819 701.16 89.6286 701.16ZM90.9086 693.46H94.0286C95.8953 693.46 96.8286 692.7 96.8286 691.18C96.8286 689.673 95.8953 688.92 94.0286 688.92H90.9086V693.46ZM106.386 701.2C105.279 701.2 104.326 700.993 103.526 700.58C102.726 700.167 102.106 699.58 101.666 698.82C101.239 698.06 101.026 697.16 101.026 696.12C101.026 695.107 101.232 694.22 101.646 693.46C102.072 692.7 102.652 692.107 103.386 691.68C104.132 691.24 104.979 691.02 105.926 691.02C107.312 691.02 108.406 691.46 109.206 692.34C110.019 693.22 110.426 694.42 110.426 695.94C110.426 696.433 110.106 696.68 109.466 696.68H103.426C103.612 698.427 104.612 699.3 106.426 699.3C106.772 699.3 107.159 699.26 107.586 699.18C108.026 699.087 108.439 698.933 108.826 698.72C109.172 698.52 109.466 698.46 109.706 698.54C109.946 698.607 110.112 698.747 110.206 698.96C110.312 699.173 110.326 699.413 110.246 699.68C110.179 699.933 109.992 700.153 109.686 700.34C109.219 700.633 108.679 700.853 108.066 701C107.466 701.133 106.906 701.2 106.386 701.2ZM106.026 692.72C105.292 692.72 104.699 692.947 104.246 693.4C103.792 693.853 103.519 694.467 103.426 695.24H108.346C108.292 694.427 108.066 693.807 107.666 693.38C107.279 692.94 106.732 692.72 106.026 692.72ZM116.965 704.8C116.245 704.8 115.545 704.733 114.865 704.6C114.199 704.467 113.592 704.26 113.045 703.98C112.725 703.82 112.532 703.613 112.465 703.36C112.412 703.12 112.439 702.887 112.545 702.66C112.652 702.433 112.812 702.267 113.025 702.16C113.252 702.067 113.492 702.08 113.745 702.2C114.332 702.493 114.885 702.68 115.405 702.76C115.939 702.853 116.392 702.9 116.765 702.9C118.552 702.9 119.445 702.04 119.445 700.32V698.98C119.165 699.527 118.732 699.96 118.145 700.28C117.572 700.6 116.932 700.76 116.225 700.76C115.345 700.76 114.579 700.56 113.925 700.16C113.272 699.747 112.765 699.173 112.405 698.44C112.045 697.707 111.865 696.853 111.865 695.88C111.865 694.907 112.045 694.06 112.405 693.34C112.765 692.607 113.272 692.04 113.925 691.64C114.579 691.227 115.345 691.02 116.225 691.02C116.932 691.02 117.572 691.173 118.145 691.48C118.719 691.787 119.139 692.207 119.405 692.74V692.32C119.405 691.907 119.512 691.593 119.725 691.38C119.952 691.167 120.259 691.06 120.645 691.06C121.472 691.06 121.885 691.48 121.885 692.32V700.02C121.885 701.607 121.465 702.8 120.625 703.6C119.785 704.4 118.565 704.8 116.965 704.8ZM116.905 698.86C117.679 698.86 118.292 698.593 118.745 698.06C119.199 697.527 119.425 696.8 119.425 695.88C119.425 694.96 119.199 694.24 118.745 693.72C118.292 693.187 117.679 692.92 116.905 692.92C116.132 692.92 115.519 693.187 115.065 693.72C114.612 694.24 114.385 694.96 114.385 695.88C114.385 696.8 114.612 697.527 115.065 698.06C115.519 698.593 116.132 698.86 116.905 698.86ZM125.716 689.22C125.249 689.22 124.882 689.107 124.616 688.88C124.362 688.64 124.236 688.313 124.236 687.9C124.236 687.473 124.362 687.147 124.616 686.92C124.882 686.693 125.249 686.58 125.716 686.58C126.702 686.58 127.196 687.02 127.196 687.9C127.196 688.78 126.702 689.22 125.716 689.22ZM125.716 701.14C125.316 701.14 125.009 701.02 124.796 700.78C124.582 700.54 124.476 700.207 124.476 699.78V692.44C124.476 691.533 124.889 691.08 125.716 691.08C126.556 691.08 126.976 691.533 126.976 692.44V699.78C126.976 700.207 126.869 700.54 126.656 700.78C126.442 701.02 126.129 701.14 125.716 701.14ZM133.153 701.2C132.58 701.2 131.973 701.14 131.333 701.02C130.693 700.9 130.12 700.693 129.613 700.4C129.333 700.24 129.16 700.047 129.093 699.82C129.027 699.58 129.033 699.36 129.113 699.16C129.207 698.947 129.353 698.793 129.553 698.7C129.767 698.607 130.013 698.627 130.293 698.76C130.827 699.013 131.327 699.193 131.793 699.3C132.26 699.393 132.72 699.44 133.173 699.44C133.813 699.44 134.287 699.333 134.593 699.12C134.913 698.893 135.073 698.6 135.073 698.24C135.073 697.68 134.66 697.32 133.833 697.16L131.833 696.78C130.14 696.46 129.293 695.58 129.293 694.14C129.293 693.5 129.467 692.947 129.813 692.48C130.173 692.013 130.667 691.653 131.293 691.4C131.92 691.147 132.64 691.02 133.453 691.02C134.627 691.02 135.673 691.28 136.593 691.8C136.847 691.933 136.993 692.12 137.033 692.36C137.087 692.587 137.06 692.807 136.953 693.02C136.86 693.22 136.707 693.367 136.493 693.46C136.28 693.54 136.033 693.513 135.753 693.38C135.34 693.167 134.94 693.013 134.553 692.92C134.18 692.827 133.82 692.78 133.473 692.78C132.82 692.78 132.333 692.893 132.013 693.12C131.707 693.347 131.553 693.647 131.553 694.02C131.553 694.607 131.933 694.967 132.693 695.1L134.693 695.48C135.56 695.64 136.213 695.933 136.653 696.36C137.107 696.787 137.333 697.36 137.333 698.08C137.333 699.053 136.953 699.82 136.193 700.38C135.433 700.927 134.42 701.2 133.153 701.2ZM143.721 701.2C141.135 701.2 139.841 699.92 139.841 697.36V693.1H138.801C138.135 693.1 137.801 692.787 137.801 692.16C137.801 691.533 138.135 691.22 138.801 691.22H139.841V689.4C139.841 688.56 140.261 688.14 141.101 688.14C141.928 688.14 142.341 688.56 142.341 689.4V691.22H144.461C145.128 691.22 145.461 691.533 145.461 692.16C145.461 692.787 145.128 693.1 144.461 693.1H142.341V697.22C142.341 697.86 142.481 698.34 142.761 698.66C143.041 698.98 143.495 699.14 144.121 699.14C144.348 699.14 144.548 699.12 144.721 699.08C144.895 699.04 145.048 699.013 145.181 699C145.341 698.987 145.475 699.04 145.581 699.16C145.688 699.267 145.741 699.493 145.741 699.84C145.741 700.107 145.695 700.347 145.601 700.56C145.521 700.76 145.368 700.9 145.141 700.98C144.968 701.033 144.741 701.08 144.461 701.12C144.181 701.173 143.935 701.2 143.721 701.2ZM151.64 701.2C150.533 701.2 149.58 700.993 148.78 700.58C147.98 700.167 147.36 699.58 146.92 698.82C146.493 698.06 146.28 697.16 146.28 696.12C146.28 695.107 146.486 694.22 146.9 693.46C147.326 692.7 147.906 692.107 148.64 691.68C149.386 691.24 150.233 691.02 151.18 691.02C152.566 691.02 153.66 691.46 154.46 692.34C155.273 693.22 155.68 694.42 155.68 695.94C155.68 696.433 155.36 696.68 154.72 696.68H148.68C148.866 698.427 149.866 699.3 151.68 699.3C152.026 699.3 152.413 699.26 152.84 699.18C153.28 699.087 153.693 698.933 154.08 698.72C154.426 698.52 154.72 698.46 154.96 698.54C155.2 698.607 155.366 698.747 155.46 698.96C155.566 699.173 155.58 699.413 155.5 699.68C155.433 699.933 155.246 700.153 154.94 700.34C154.473 700.633 153.933 700.853 153.32 701C152.72 701.133 152.16 701.2 151.64 701.2ZM151.28 692.72C150.546 692.72 149.953 692.947 149.5 693.4C149.046 693.853 148.773 694.467 148.68 695.24H153.6C153.546 694.427 153.32 693.807 152.92 693.38C152.533 692.94 151.986 692.72 151.28 692.72ZM158.939 701.16C158.086 701.16 157.659 700.733 157.659 699.88V692.32C157.659 691.48 158.066 691.06 158.879 691.06C159.693 691.06 160.099 691.48 160.099 692.32V692.94C160.579 691.793 161.606 691.153 163.179 691.02C163.753 690.953 164.073 691.28 164.139 692C164.206 692.707 163.859 693.1 163.099 693.18L162.659 693.22C161.019 693.38 160.199 694.22 160.199 695.74V699.88C160.199 700.733 159.779 701.16 158.939 701.16Z" fill="white"/>
<path d="M203.578 701C202.712 701 202.278 700.56 202.278 699.68V688.14C202.278 687.273 202.705 686.84 203.558 686.84C204.412 686.84 204.838 687.273 204.838 688.14V698.82H210.638C211.385 698.82 211.758 699.18 211.758 699.9C211.758 700.633 211.385 701 210.638 701H203.578ZM217.631 701.2C216.618 701.2 215.738 700.993 214.991 700.58C214.244 700.167 213.664 699.58 213.251 698.82C212.838 698.047 212.631 697.14 212.631 696.1C212.631 695.06 212.838 694.16 213.251 693.4C213.664 692.64 214.244 692.053 214.991 691.64C215.738 691.227 216.618 691.02 217.631 691.02C218.644 691.02 219.524 691.227 220.271 691.64C221.018 692.053 221.598 692.64 222.011 693.4C222.424 694.16 222.631 695.06 222.631 696.1C222.631 697.14 222.424 698.047 222.011 698.82C221.598 699.58 221.018 700.167 220.271 700.58C219.524 700.993 218.644 701.2 217.631 701.2ZM217.631 699.3C218.378 699.3 218.978 699.033 219.431 698.5C219.884 697.953 220.111 697.153 220.111 696.1C220.111 695.033 219.884 694.24 219.431 693.72C218.978 693.187 218.378 692.92 217.631 692.92C216.884 692.92 216.284 693.187 215.831 693.72C215.378 694.24 215.151 695.033 215.151 696.1C215.151 697.153 215.378 697.953 215.831 698.5C216.284 699.033 216.884 699.3 217.631 699.3ZM229.255 704.8C228.535 704.8 227.835 704.733 227.155 704.6C226.488 704.467 225.881 704.26 225.335 703.98C225.015 703.82 224.821 703.613 224.755 703.36C224.701 703.12 224.728 702.887 224.835 702.66C224.941 702.433 225.101 702.267 225.315 702.16C225.541 702.067 225.781 702.08 226.035 702.2C226.621 702.493 227.175 702.68 227.695 702.76C228.228 702.853 228.681 702.9 229.055 702.9C230.841 702.9 231.735 702.04 231.735 700.32V698.98C231.455 699.527 231.021 699.96 230.435 700.28C229.861 700.6 229.221 700.76 228.515 700.76C227.635 700.76 226.868 700.56 226.215 700.16C225.561 699.747 225.055 699.173 224.695 698.44C224.335 697.707 224.155 696.853 224.155 695.88C224.155 694.907 224.335 694.06 224.695 693.34C225.055 692.607 225.561 692.04 226.215 691.64C226.868 691.227 227.635 691.02 228.515 691.02C229.221 691.02 229.861 691.173 230.435 691.48C231.008 691.787 231.428 692.207 231.695 692.74V692.32C231.695 691.907 231.801 691.593 232.015 691.38C232.241 691.167 232.548 691.06 232.935 691.06C233.761 691.06 234.175 691.48 234.175 692.32V700.02C234.175 701.607 233.755 702.8 232.915 703.6C232.075 704.4 230.855 704.8 229.255 704.8ZM229.195 698.86C229.968 698.86 230.581 698.593 231.035 698.06C231.488 697.527 231.715 696.8 231.715 695.88C231.715 694.96 231.488 694.24 231.035 693.72C230.581 693.187 229.968 692.92 229.195 692.92C228.421 692.92 227.808 693.187 227.355 693.72C226.901 694.24 226.675 694.96 226.675 695.88C226.675 696.8 226.901 697.527 227.355 698.06C227.808 698.593 228.421 698.86 229.195 698.86ZM238.005 689.22C237.538 689.22 237.172 689.107 236.905 688.88C236.652 688.64 236.525 688.313 236.525 687.9C236.525 687.473 236.652 687.147 236.905 686.92C237.172 686.693 237.538 686.58 238.005 686.58C238.992 686.58 239.485 687.02 239.485 687.9C239.485 688.78 238.992 689.22 238.005 689.22ZM238.005 701.14C237.605 701.14 237.298 701.02 237.085 700.78C236.872 700.54 236.765 700.207 236.765 699.78V692.44C236.765 691.533 237.178 691.08 238.005 691.08C238.845 691.08 239.265 691.533 239.265 692.44V699.78C239.265 700.207 239.158 700.54 238.945 700.78C238.732 701.02 238.418 701.14 238.005 701.14ZM243.103 701.16C242.276 701.16 241.863 700.733 241.863 699.88V692.32C241.863 691.48 242.269 691.06 243.083 691.06C243.896 691.06 244.303 691.48 244.303 692.32V692.74C244.636 692.18 245.083 691.753 245.643 691.46C246.216 691.167 246.856 691.02 247.563 691.02C249.869 691.02 251.023 692.36 251.023 695.04V699.88C251.023 700.733 250.609 701.16 249.783 701.16C248.943 701.16 248.523 700.733 248.523 699.88V695.16C248.523 694.4 248.376 693.847 248.083 693.5C247.803 693.153 247.363 692.98 246.763 692.98C246.029 692.98 245.443 693.213 245.003 693.68C244.576 694.133 244.363 694.74 244.363 695.5V699.88C244.363 700.733 243.943 701.16 243.103 701.16Z" fill="url(#paint2_linear_84_92)"/>
<circle opacity="0.5" cx="179.5" cy="263.5" r="137.5" fill="url(#paint3_radial_84_92)"/>
<g filter="url(#filter2_d_84_92)">
<path fill-rule="evenodd" clip-rule="evenodd" d="M217 190C214.239 190 212 192.239 212 195C212 197.761 214.239 200 217 200L245.87 200L226.127 219.743C214.784 208.176 198.98 201 181.5 201C146.982 201 119 228.982 119 263.5C119 295.883 143.628 322.513 175.175 325.684C175.061 326.103 175 326.545 175 327V337H160C157.239 337 155 339.239 155 342C155 344.761 157.239 347 160 347H175L175 367C175 369.761 177.239 372 180 372C182.761 372 185 369.761 185 367V347H200C202.761 347 205 344.761 205 342C205 339.239 202.761 337 200 337H185V327C185 326.626 184.959 326.261 184.881 325.91C217.827 324.154 244 296.884 244 263.5C244 250.074 239.767 237.637 232.562 227.45L253 207.012V235C253 237.761 255.239 240 258 240C260.761 240 263 237.761 263 235V195C263 192.239 260.761 190 258 190C257.831 190 257.664 190.008 257.5 190.025C257.335 190.008 257.169 190 257 190L217 190ZM234 263.5C234 292.495 210.495 316 181.5 316C152.505 316 129 292.495 129 263.5C129 234.505 152.505 211 181.5 211C210.495 211 234 234.505 234 263.5ZM157 258C157 255.239 159.239 253 162 253L202 253C204.761 253 207 255.239 207 258C207 260.761 204.761 263 202 263L162 263C159.239 263 157 260.761 157 258ZM162 268C159.239 268 157 270.239 157 273C157 275.761 159.239 278 162 278L202 278C204.761 278 207 275.761 207 273C207 270.239 204.761 268 202 268L162 268Z" fill="url(#paint4_linear_84_92)"/>
</g>
</g>
<defs>
<filter id="filter0_f_84_92" x="-288" y="-348" width="957" height="1329" filterUnits="userSpaceOnUse" color-interpolation-filters="sRGB">
<feFlood flood-opacity="0" result="BackgroundImageFix"/>
<feBlend mode="normal" in="SourceGraphic" in2="BackgroundImageFix" result="shape"/>
<feGaussianBlur stdDeviation="100" result="effect1_foregroundBlur_84_92"/>
</filter>
<filter id="filter1_i_84_92" x="0" y="405" width="360" height="405" filterUnits="userSpaceOnUse" color-interpolation-filters="sRGB">
<feFlood flood-opacity="0" result="BackgroundImageFix"/>
<feBlend mode="normal" in="SourceGraphic" in2="BackgroundImageFix" result="shape"/>
<feColorMatrix in="SourceAlpha" type="matrix" values="0 0 0 0 0 0 0 0 0 0 0 0 0 0 0 0 0 0 127 0" result="hardAlpha"/>
<feOffset dy="10"/>
<feGaussianBlur stdDeviation="5"/>
<feComposite in2="hardAlpha" operator="arithmetic" k2="-1" k3="1"/>
<feColorMatrix type="matrix" values="0 0 0 0 0 0 0 0 0 0 0 0 0 0 0 0 0 0 0.25 0"/>
<feBlend mode="normal" in2="shape" result="effect1_innerShadow_84_92"/>
</filter>
<filter id="filter2_d_84_92" x="114" y="185" width="164" height="202" filterUnits="userSpaceOnUse" color-interpolation-filters="sRGB">
<feFlood flood-opacity="0" result="BackgroundImageFix"/>
<feColorMatrix in="SourceAlpha" type="matrix" values="0 0 0 0 0 0 0 0 0 0 0 0 0 0 0 0 0 0 127 0" result="hardAlpha"/>
<feOffset dx="5" dy="5"/>
<feGaussianBlur stdDeviation="5"/>
<feComposite in2="hardAlpha" operator="out"/>
<feColorMatrix type="matrix" values="0 0 0 0 0 0 0 0 0 0 0 0 0 0 0 0 0 0 0.25 0"/>
<feBlend mode="normal" in2="BackgroundImageFix" result="effect1_dropShadow_84_92"/>
<feBlend mode="normal" in="SourceGraphic" in2="effect1_dropShadow_84_92" result="shape"/>
</filter>
<linearGradient id="paint0_linear_84_92" x1="96.8509" y1="653.111" x2="206.898" y2="778.497" gradientUnits="userSpaceOnUse">
<stop stop-color="#EE748F"/>
<stop offset="1" stop-color="#809BFE"/>
</linearGradient>
<linearGradient id="paint1_linear_84_92" x1="86" y1="659.5" x2="173" y2="718.5" gradientUnits="userSpaceOnUse">
<stop stop-color="#EE748F"/>
<stop offset="1" stop-color="#809BFE"/>
</linearGradient>
<linearGradient id="paint2_linear_84_92" x1="207.202" y1="677.528" x2="248.068" y2="706.409" gradientUnits="userSpaceOnUse">
<stop stop-color="#EE748F"/>
<stop offset="1" stop-color="#809BFE"/>
</linearGradient>
<radialGradient id="paint3_radial_84_92" cx="0" cy="0" r="1" gradientUnits="userSpaceOnUse" gradientTransform="translate(179.5 263.5) rotate(90) scale(137.5)">
<stop offset="0.802083" stop-color="white"/>
<stop offset="1" stop-color="white" stop-opacity="0"/>
</radialGradient>
<linearGradient id="paint4_linear_84_92" x1="191" y1="190" x2="191" y2="372" gradientUnits="userSpaceOnUse">
<stop stop-color="#809BFE"/>
<stop offset="1" stop-color="#EE748F"/>
</linearGradient>
<clipPath id="clip0_84_92">
<rect width="360" height="800" fill="white"/>
</clipPath>
</defs>
</svg>
