<?xml version="1.0" encoding="UTF-8" standalone="no"?>
<svg
   width="360"
   height="801"
   viewBox="0 0 360 801"
   fill="none"
   version="1.1"
   id="svg69"
   sodipodi:docname="splashscreen_bg.svg"
   inkscape:version="1.1.1 (3bf5ae0d25, 2021-09-20)"
   inkscape:export-filename="D:\Projek Koding\Android Studio\EQual2\app\src\main\res\drawable-v24\universal_screen_background_blurred.png"
   inkscape:export-xdpi="148.353"
   inkscape:export-ydpi="148.353"
   xmlns:inkscape="http://www.inkscape.org/namespaces/inkscape"
   xmlns:sodipodi="http://sodipodi.sourceforge.net/DTD/sodipodi-0.dtd"
   xmlns="http://www.w3.org/2000/svg"
   xmlns:svg="http://www.w3.org/2000/svg">
  <sodipodi:namedview
     id="namedview71"
     pagecolor="#ffffff"
     bordercolor="#666666"
     borderopacity="1.0"
     inkscape:pageshadow="2"
     inkscape:pageopacity="0.0"
     inkscape:pagecheckerboard="0"
     showgrid="false"
     inkscape:zoom="0.53916892"
     inkscape:cx="-82.534431"
     inkscape:cy="399.68921"
     inkscape:window-width="1440"
     inkscape:window-height="837"
     inkscape:window-x="1912"
     inkscape:window-y="171"
     inkscape:window-maximized="1"
     inkscape:current-layer="layer1"
     height="801px" />
  <g
     clip-path="url(#clip0_163_613)"
     id="g28">
    <rect
       width="360"
       height="800"
       fill="#ffffff"
       id="rect2"
       x="0"
       y="0" />
    <g
       filter="url(#filter0_f_163_613)"
       id="g20">
      <path
         d="M 228,360.5 C 228,440.857 162.857,506 82.5,506 2.14257,506 -63,440.857 -63,360.5 -63,280.143 2.14257,215 82.5,215 162.857,215 228,280.143 228,360.5 Z"
         fill="#809bfe"
         id="path4" />
      <path
         d="M 456,141.5 C 456,221.857 390.857,287 310.5,287 230.143,287 165,221.857 165,141.5 165,61.1426 230.143,-4 310.5,-4 390.857,-4 456,61.1426 456,141.5 Z"
         fill="#ffcd92"
         id="path6" />
      <path
         d="M 257,599.5 C 257,679.857 191.857,745 111.5,745 31.1426,745 -34,679.857 -34,599.5 -34,519.143 31.1426,454 111.5,454 191.857,454 257,519.143 257,599.5 Z"
         fill="#ffcd92"
         id="path8" />
      <path
         d="M 203,24.5 C 203,104.857 137.857,170 57.5,170 -22.8574,170 -88,104.857 -88,24.5 -88,-55.8574 -22.8574,-121 57.5,-121 137.857,-121 203,-55.8574 203,24.5 Z"
         fill="#79418a"
         id="path10" />
      <path
         d="M 410,414.5 C 410,494.857 344.857,560 264.5,560 184.143,560 119,494.857 119,414.5 119,334.143 184.143,269 264.5,269 344.857,269 410,334.143 410,414.5 Z"
         fill="#79418a"
         id="path12" />
      <path
         d="M 437,-2.5 C 437,77.8574 371.857,143 291.5,143 211.143,143 146,77.8574 146,-2.5 146,-82.8574 211.143,-148 291.5,-148 371.857,-148 437,-82.8574 437,-2.5 Z"
         fill="#809bfe"
         id="path14" />
      <path
         d="M 249,214.5 C 249,294.857 183.857,360 103.5,360 23.1426,360 -42,294.857 -42,214.5 -42,134.143 23.1426,69 103.5,69 183.857,69 249,134.143 249,214.5 Z"
         fill="#ee748f"
         id="path16" />
      <path
         d="M 469,635.5 C 469,715.857 403.857,781 323.5,781 243.143,781 178,715.857 178,635.5 178,555.143 243.143,490 323.5,490 403.857,490 469,555.143 469,635.5 Z"
         fill="#ee748f"
         id="path18" />
    </g>
    <g
       filter="url(#filter1_d_163_613)"
       id="g26" />
  </g>
  <g
     inkscape:groupmode="layer"
     id="layer1"
     inkscape:label="Layer 1">
    <rect
       style="fill:#d0d0d0;fill-opacity:0.53379953;stroke:#ffffff;stroke-width:4.0252;stroke-linecap:round;stroke-linejoin:round"
       id="rect878"
       width="360"
       height="800"
       x="0"
       y="0" />
  </g>
  <defs
     id="defs67">
    <filter
       id="filter0_f_163_613"
       x="-288"
       y="-348"
       width="957"
       height="1329"
       filterUnits="userSpaceOnUse"
       color-interpolation-filters="sRGB">
      <feFlood
         flood-opacity="0"
         result="BackgroundImageFix"
         id="feFlood30" />
      <feBlend
         mode="normal"
         in="SourceGraphic"
         in2="BackgroundImageFix"
         result="shape"
         id="feBlend32" />
      <feGaussianBlur
         stdDeviation="100"
         result="effect1_foregroundBlur_163_613"
         id="feGaussianBlur34" />
    </filter>
    <filter
       id="filter1_d_163_613"
       x="133.12"
       y="343.47601"
       width="118.822"
       height="147.011"
       filterUnits="userSpaceOnUse"
       color-interpolation-filters="sRGB">
      <feFlood
         flood-opacity="0"
         result="BackgroundImageFix"
         id="feFlood37" />
      <feColorMatrix
         in="SourceAlpha"
         type="matrix"
         values="0 0 0 0 0 0 0 0 0 0 0 0 0 0 0 0 0 0 127 0"
         result="hardAlpha"
         id="feColorMatrix39" />
      <feOffset
         dx="4"
         dy="4"
         id="feOffset41" />
      <feGaussianBlur
         stdDeviation="3"
         id="feGaussianBlur43" />
      <feComposite
         in2="hardAlpha"
         operator="out"
         id="feComposite45" />
      <feColorMatrix
         type="matrix"
         values="0 0 0 0 0 0 0 0 0 0 0 0 0 0 0 0 0 0 0.25 0"
         id="feColorMatrix47" />
      <feBlend
         mode="normal"
         in2="BackgroundImageFix"
         result="effect1_dropShadow_163_613"
         id="feBlend49" />
      <feBlend
         mode="normal"
         in="SourceGraphic"
         in2="effect1_dropShadow_163_613"
         result="shape"
         id="feBlend51" />
    </filter>
    <radialGradient
       id="paint0_radial_163_613"
       cx="0"
       cy="0"
       r="1"
       gradientUnits="userSpaceOnUse"
       gradientTransform="matrix(0,102,-102,0,180,400)">
      <stop
         offset="0.802083"
         stop-color="white"
         id="stop54" />
      <stop
         offset="1"
         stop-color="white"
         stop-opacity="0"
         id="stop56" />
    </radialGradient>
    <linearGradient
       id="paint1_linear_163_613"
       x1="188.53101"
       y1="345.47601"
       x2="188.53101"
       y2="480.487"
       gradientUnits="userSpaceOnUse">
      <stop
         stop-color="#809BFE"
         id="stop59" />
      <stop
         offset="1"
         stop-color="#EE748F"
         id="stop61" />
    </linearGradient>
    <clipPath
       id="clip0_163_613">
      <rect
         width="360"
         height="800"
         fill="#ffffff"
         id="rect64"
         x="0"
         y="0" />
    </clipPath>
  </defs>
</svg>
