<svg width="360" height="800" viewBox="0 0 360 800" fill="none" xmlns="http://www.w3.org/2000/svg">
<g clip-path="url(#clip0_163_613)">
<rect width="360" height="800" fill="white"/>
<g filter="url(#filter0_f_163_613)">
<path d="M228 360.5C228 440.857 162.857 506 82.5 506C2.14257 506 -63 440.857 -63 360.5C-63 280.143 2.14257 215 82.5 215C162.857 215 228 280.143 228 360.5Z" fill="#809BFE"/>
<path d="M456 141.5C456 221.857 390.857 287 310.5 287C230.143 287 165 221.857 165 141.5C165 61.1426 230.143 -4 310.5 -4C390.857 -4 456 61.1426 456 141.5Z" fill="#FFCD92"/>
<path d="M257 599.5C257 679.857 191.857 745 111.5 745C31.1426 745 -34 679.857 -34 599.5C-34 519.143 31.1426 454 111.5 454C191.857 454 257 519.143 257 599.5Z" fill="#FFCD92"/>
<path d="M203 24.5C203 104.857 137.857 170 57.5 170C-22.8574 170 -88 104.857 -88 24.5C-88 -55.8574 -22.8574 -121 57.5 -121C137.857 -121 203 -55.8574 203 24.5Z" fill="#79418A"/>
<path d="M410 414.5C410 494.857 344.857 560 264.5 560C184.143 560 119 494.857 119 414.5C119 334.143 184.143 269 264.5 269C344.857 269 410 334.143 410 414.5Z" fill="#79418A"/>
<path d="M437 -2.5C437 77.8574 371.857 143 291.5 143C211.143 143 146 77.8574 146 -2.5C146 -82.8574 211.143 -148 291.5 -148C371.857 -148 437 -82.8574 437 -2.5Z" fill="#809BFE"/>
<path d="M249 214.5C249 294.857 183.857 360 103.5 360C23.1426 360 -42 294.857 -42 214.5C-42 134.143 23.1426 69 103.5 69C183.857 69 249 134.143 249 214.5Z" fill="#EE748F"/>
<path d="M469 635.5C469 715.857 403.857 781 323.5 781C243.143 781 178 715.857 178 635.5C178 555.143 243.143 490 323.5 490C403.857 490 469 555.143 469 635.5Z" fill="#EE748F"/>
</g>
<circle opacity="0.5" cx="180" cy="400" r="102" fill="url(#paint0_radial_163_613)"/>
<g filter="url(#filter1_d_163_613)">
<path fill-rule="evenodd" clip-rule="evenodd" d="M238.442 382.567C236.509 382.567 234.942 381 234.942 379.067V357.678L219.362 373.258C224.707 380.814 227.847 390.04 227.847 400C227.847 424.892 208.231 445.202 183.614 446.316C183.645 446.504 183.662 446.698 183.662 446.896V454.942H195.416C197.349 454.942 198.916 456.509 198.916 458.442C198.916 460.375 197.349 461.942 195.416 461.942H183.662V476.987C183.662 478.92 182.095 480.487 180.162 480.487C178.229 480.487 176.662 478.92 176.662 476.987V461.942H165.325C163.392 461.942 161.825 460.375 161.825 458.442C161.825 456.509 163.392 454.942 165.325 454.942H176.662V446.896C176.662 446.631 176.691 446.373 176.747 446.125C153.366 443.752 135.12 424.007 135.12 400C135.12 374.394 155.878 353.636 181.484 353.636C194.601 353.636 206.446 359.084 214.88 367.84L229.826 352.895L207.609 352.895C205.676 352.895 204.109 351.328 204.109 349.395C204.109 347.462 205.676 345.895 207.609 345.895L236.781 345.895C237.275 345.628 237.841 345.476 238.442 345.476C240.375 345.476 241.942 347.043 241.942 348.976V379.067C241.942 381 240.375 382.567 238.442 382.567ZM220.847 400C220.847 421.74 203.224 439.364 181.484 439.364C159.744 439.364 142.12 421.74 142.12 400C142.12 378.26 159.744 360.636 181.484 360.636C203.224 360.636 220.847 378.26 220.847 400ZM163.309 396.129C163.309 394.196 164.876 392.629 166.809 392.629L196.9 392.629C198.833 392.629 200.4 394.196 200.4 396.129C200.4 398.062 198.833 399.629 196.9 399.629L166.809 399.629C164.876 399.629 163.309 398.062 163.309 396.129ZM166.809 403.756C164.876 403.756 163.309 405.323 163.309 407.256C163.309 409.189 164.876 410.756 166.809 410.756H196.9C198.833 410.756 200.4 409.189 200.4 407.256C200.4 405.323 198.833 403.756 196.9 403.756L166.809 403.756Z" fill="url(#paint1_linear_163_613)"/>
</g>
</g>
<defs>
<filter id="filter0_f_163_613" x="-288" y="-348" width="957" height="1329" filterUnits="userSpaceOnUse" color-interpolation-filters="sRGB">
<feFlood flood-opacity="0" result="BackgroundImageFix"/>
<feBlend mode="normal" in="SourceGraphic" in2="BackgroundImageFix" result="shape"/>
<feGaussianBlur stdDeviation="100" result="effect1_foregroundBlur_163_613"/>
</filter>
<filter id="filter1_d_163_613" x="133.12" y="343.476" width="118.822" height="147.011" filterUnits="userSpaceOnUse" color-interpolation-filters="sRGB">
<feFlood flood-opacity="0" result="BackgroundImageFix"/>
<feColorMatrix in="SourceAlpha" type="matrix" values="0 0 0 0 0 0 0 0 0 0 0 0 0 0 0 0 0 0 127 0" result="hardAlpha"/>
<feOffset dx="4" dy="4"/>
<feGaussianBlur stdDeviation="3"/>
<feComposite in2="hardAlpha" operator="out"/>
<feColorMatrix type="matrix" values="0 0 0 0 0 0 0 0 0 0 0 0 0 0 0 0 0 0 0.25 0"/>
<feBlend mode="normal" in2="BackgroundImageFix" result="effect1_dropShadow_163_613"/>
<feBlend mode="normal" in="SourceGraphic" in2="effect1_dropShadow_163_613" result="shape"/>
</filter>
<radialGradient id="paint0_radial_163_613" cx="0" cy="0" r="1" gradientUnits="userSpaceOnUse" gradientTransform="translate(180 400) rotate(90) scale(102)">
<stop offset="0.802083" stop-color="white"/>
<stop offset="1" stop-color="white" stop-opacity="0"/>
</radialGradient>
<linearGradient id="paint1_linear_163_613" x1="188.531" y1="345.476" x2="188.531" y2="480.487" gradientUnits="userSpaceOnUse">
<stop stop-color="#809BFE"/>
<stop offset="1" stop-color="#EE748F"/>
</linearGradient>
<clipPath id="clip0_163_613">
<rect width="360" height="800" fill="white"/>
</clipPath>
</defs>
</svg>
