<svg width="204" height="204" viewBox="0 0 204 204" fill="none" xmlns="http://www.w3.org/2000/svg">
<circle opacity="0.5" cx="102" cy="102" r="102" fill="url(#paint0_radial_163_626)"/>
<g filter="url(#filter0_d_163_626)">
<path fill-rule="evenodd" clip-rule="evenodd" d="M160.442 84.5673C158.509 84.5673 156.942 83.0003 156.942 81.0673V59.6781L141.362 75.2577C146.707 82.8142 149.847 92.0403 149.847 102C149.847 126.892 130.231 147.202 105.614 148.316C105.645 148.504 105.662 148.698 105.662 148.896V156.942H117.416C119.349 156.942 120.916 158.509 120.916 160.442C120.916 162.375 119.349 163.942 117.416 163.942H105.662V178.987C105.662 180.92 104.095 182.487 102.162 182.487C100.229 182.487 98.6618 180.92 98.6618 178.987V163.942H87.3255C85.3925 163.942 83.8255 162.375 83.8255 160.442C83.8255 158.509 85.3925 156.942 87.3255 156.942H98.6618V148.896C98.6618 148.631 98.6913 148.373 98.7472 148.125C75.3661 145.752 57.12 126.007 57.12 102C57.12 76.3941 77.8777 55.6363 103.484 55.6363C116.601 55.6363 128.446 61.0839 136.88 69.8402L151.826 54.8945L129.609 54.8945C127.676 54.8945 126.109 53.3275 126.109 51.3945C126.109 49.4615 127.676 47.8945 129.609 47.8945L158.781 47.8945C159.275 47.6278 159.841 47.4763 160.442 47.4763C162.375 47.4763 163.942 49.0434 163.942 50.9763V81.0673C163.942 83.0003 162.375 84.5673 160.442 84.5673ZM142.847 102C142.847 123.74 125.224 141.364 103.484 141.364C81.7437 141.364 64.12 123.74 64.12 102C64.12 80.26 81.7437 62.6363 103.484 62.6363C125.224 62.6363 142.847 80.26 142.847 102ZM85.3091 98.1291C85.3091 96.1961 86.8761 94.6291 88.8091 94.6291L118.9 94.6291C120.833 94.6291 122.4 96.1961 122.4 98.1291C122.4 100.062 120.833 101.629 118.9 101.629L88.8091 101.629C86.8761 101.629 85.3091 100.062 85.3091 98.1291ZM88.8091 105.756C86.8761 105.756 85.3091 107.323 85.3091 109.256C85.3091 111.189 86.8761 112.756 88.8091 112.756H118.9C120.833 112.756 122.4 111.189 122.4 109.256C122.4 107.323 120.833 105.756 118.9 105.756L88.8091 105.756Z" fill="url(#paint1_linear_163_626)"/>
</g>
<defs>
<filter id="filter0_d_163_626" x="55.12" y="45.4763" width="118.822" height="147.011" filterUnits="userSpaceOnUse" color-interpolation-filters="sRGB">
<feFlood flood-opacity="0" result="BackgroundImageFix"/>
<feColorMatrix in="SourceAlpha" type="matrix" values="0 0 0 0 0 0 0 0 0 0 0 0 0 0 0 0 0 0 127 0" result="hardAlpha"/>
<feOffset dx="4" dy="4"/>
<feGaussianBlur stdDeviation="3"/>
<feComposite in2="hardAlpha" operator="out"/>
<feColorMatrix type="matrix" values="0 0 0 0 0 0 0 0 0 0 0 0 0 0 0 0 0 0 0.25 0"/>
<feBlend mode="normal" in2="BackgroundImageFix" result="effect1_dropShadow_163_626"/>
<feBlend mode="normal" in="SourceGraphic" in2="effect1_dropShadow_163_626" result="shape"/>
</filter>
<radialGradient id="paint0_radial_163_626" cx="0" cy="0" r="1" gradientUnits="userSpaceOnUse" gradientTransform="translate(102 102) rotate(90) scale(102)">
<stop offset="0.802083" stop-color="white"/>
<stop offset="1" stop-color="white" stop-opacity="0"/>
</radialGradient>
<linearGradient id="paint1_linear_163_626" x1="110.531" y1="47.4763" x2="110.531" y2="182.487" gradientUnits="userSpaceOnUse">
<stop stop-color="#809BFE"/>
<stop offset="1" stop-color="#EE748F"/>
</linearGradient>
</defs>
</svg>
